<svg width="208" height="50" viewBox="0 0 208 50" fill="none" xmlns="http://www.w3.org/2000/svg">
<path fill-rule="evenodd" clip-rule="evenodd" d="M29.4903 20.51C26.9504 21.5731 24.2263 22.1269 21.473 22.1401C17.7898 22.1484 14.1672 21.1986 10.9626 19.3829C10.7018 19.2315 10.5084 19.4991 10.7267 19.6964C13.6139 22.2769 17.3581 23.6911 21.2303 23.6648C24.1316 23.6648 27.5047 22.7564 29.8287 21.0487C30.2155 20.7669 29.8844 20.3444 29.4903 20.51Z" fill="#4804FF"/>
<path fill-rule="evenodd" clip-rule="evenodd" d="M28.0214 19.5486C27.8173 19.6892 27.8525 19.9007 28.0815 19.8621C28.8282 19.7708 30.4969 19.5735 30.7963 19.95C31.0956 20.3265 30.4652 21.8903 30.1834 22.5871C30.0989 22.7986 30.282 22.8831 30.472 22.7244C31.7183 21.6681 32.0426 19.5095 31.7891 19.2033C31.5356 18.8971 29.3527 18.6188 28.0214 19.5486Z" fill="#4804FF"/>
<path fill-rule="evenodd" clip-rule="evenodd" d="M32.5743 16.9186C31.8584 16.5499 31.058 16.379 30.2541 16.422L32.3668 13.4288C32.5186 13.2647 32.6266 13.065 32.6803 12.8477V12.0731C32.6803 11.9467 32.5777 11.8441 32.4517 11.8441C32.4493 11.8441 32.4468 11.8441 32.4444 11.8441H28.3632C28.2406 11.8402 28.1381 11.9364 28.1342 12.0585C28.1342 12.0634 28.1342 12.0683 28.1342 12.0727V12.9776C28.1322 13.1021 28.2314 13.2047 28.3559 13.2066C28.3593 13.2066 28.3632 13.2066 28.3666 13.2066H30.4793L28.0355 16.6925C27.9222 16.8786 27.8695 17.0949 27.8841 17.3122V18.2313C27.8841 18.3617 28.0321 18.5131 28.1728 18.4389C29.5231 17.7449 31.1254 17.7449 32.4757 18.4389C32.627 18.5199 32.775 18.3651 32.775 18.2313V17.2702C32.7736 17.1262 32.6979 16.9928 32.5743 16.9186Z" fill="#4804FF"/>
<path fill-rule="evenodd" clip-rule="evenodd" d="M36.1729 11.7285C34.3806 11.7285 33.3878 13.26 33.3878 15.2286C33.3878 17.1971 34.3704 18.7496 36.1729 18.7496C37.909 18.7496 38.9897 17.2181 38.9897 15.2881C39.0175 13.2991 38.0106 11.7285 36.1729 11.7285ZM36.1729 17.4501C35.201 17.4501 35.2152 15.8024 35.2152 15.0274C35.2152 14.2528 35.2714 13.0202 36.1836 13.0202C36.5684 12.9943 36.9137 13.2556 36.9933 13.6331C37.1369 14.1796 37.1994 14.7446 37.1799 15.3091C37.1799 16.1193 37.134 17.4501 36.1729 17.4501Z" fill="#4804FF"/>
<path fill-rule="evenodd" clip-rule="evenodd" d="M22.5604 14.7743C21.7419 15.1035 21.214 15.9063 21.2365 16.7883C21.2365 18.0697 22.0501 18.7109 23.0922 18.7109C23.877 18.7544 24.6359 18.4209 25.1345 17.8129C25.3206 18.1244 25.5589 18.4023 25.8387 18.6333C25.934 18.6856 26.0512 18.6743 26.1347 18.605C26.1347 18.605 26.8389 18.0028 27.0855 17.7914C27.1758 17.703 27.1778 17.5579 27.0894 17.4676C27.0879 17.4661 27.087 17.4652 27.0855 17.4637C26.792 17.1546 26.626 16.7458 26.6206 16.3195V14.4002C26.6206 13.5866 26.6767 12.8404 26.0746 12.2876C25.5526 11.8686 24.8986 11.6488 24.2296 11.6679C23.0502 11.6679 21.7365 12.1045 21.4587 13.5554C21.4362 13.6741 21.5143 13.7878 21.6325 13.8103C21.6369 13.8113 21.6408 13.8118 21.6452 13.8123L22.8319 13.9392C22.9374 13.9392 23.0395 13.8372 23.0644 13.6999C23.1694 13.2453 23.5923 12.9361 24.0572 12.9747C24.3292 12.965 24.59 13.0836 24.7614 13.2951C24.9729 13.5769 24.9128 14.3514 24.9128 14.3514C24.1695 14.4291 23.2294 14.4818 22.5604 14.7743ZM24.6554 16.9187C24.4938 17.2473 24.1656 17.4622 23.7998 17.4783C23.3247 17.4783 23.0463 17.1262 23.0463 16.5876C23.0463 15.5313 23.9937 15.3447 24.8879 15.3447V15.6123C24.9348 16.0606 24.8542 16.5134 24.6554 16.9187Z" fill="#4804FF"/>
<path fill-rule="evenodd" clip-rule="evenodd" d="M10.8488 17.4641C10.5538 17.1555 10.3868 16.7467 10.3804 16.3199V14.4007C10.3804 13.5871 10.4405 12.8409 9.83837 12.2881C9.30997 11.8666 8.64776 11.6493 7.97236 11.6752C6.79299 11.6752 5.47589 12.1118 5.20144 13.5627C5.17897 13.6813 5.25711 13.7951 5.37529 13.8176C5.37969 13.8186 5.38359 13.819 5.38799 13.8195L6.57127 13.9465C6.68066 13.9465 6.78273 13.8444 6.80715 13.7072C6.91214 13.254 7.33262 12.9454 7.79656 12.982C8.06857 12.9732 8.32886 13.0919 8.50076 13.3024C8.71222 13.5841 8.65215 14.3587 8.65215 14.3587C7.94795 14.4397 6.9937 14.4925 6.32123 14.7845C5.50422 15.1147 4.97777 15.9175 5.00072 16.7985C5.00072 18.0799 5.81041 18.7212 6.85647 18.7212C7.64028 18.7636 8.39723 18.4301 8.89535 17.8231C9.0824 18.1342 9.32022 18.4115 9.59956 18.6435C9.69333 18.6953 9.80956 18.684 9.8916 18.6152C9.8916 18.6152 10.5958 18.013 10.8458 17.8016C10.9401 17.7117 10.9435 17.5623 10.8537 17.468C10.8517 17.4671 10.8502 17.4656 10.8488 17.4641ZM8.41921 16.9186C8.25707 17.2488 7.92744 17.4632 7.56019 17.4783C7.08502 17.4783 6.80666 17.1262 6.80666 16.5875C6.80666 15.5312 7.75407 15.3447 8.65167 15.3447V15.6123C8.69855 16.0606 8.61797 16.5133 8.41921 16.9186Z" fill="#4804FF"/>
<path fill-rule="evenodd" clip-rule="evenodd" d="M12.0529 18.6226H13.2889C13.4164 18.6206 13.5194 18.5176 13.5214 18.3901V15.0415C13.5214 14.3089 13.4862 13.281 14.377 13.281C15.2677 13.281 15.1413 14.3373 15.1413 15.0415V18.3935C15.1447 18.5156 15.2409 18.6153 15.363 18.6226H16.599C16.7274 18.6265 16.8344 18.5259 16.8383 18.3975C16.8383 18.3965 16.8383 18.395 16.8383 18.394V15.042C16.8119 14.6347 16.8515 14.2254 16.9545 13.8308C17.0761 13.5266 17.3667 13.3234 17.6939 13.3132C18.046 13.2629 18.3717 13.5071 18.4225 13.8592C18.4645 14.2523 18.4762 14.6474 18.4577 15.0425V18.3945C18.4611 18.5166 18.5573 18.6162 18.6794 18.6236H19.9154C20.0438 18.6275 20.1508 18.5269 20.1547 18.3984C20.1547 18.3975 20.1547 18.396 20.1547 18.395V14.4056C20.1547 13.7258 20.2358 12.9547 19.8412 12.4234C19.2136 11.6308 18.0621 11.4965 17.269 12.1245C17.0121 12.3282 16.8144 12.5968 16.6967 12.9025C16.3446 12.103 15.8621 11.7299 15.0875 11.7299C14.3408 11.7016 13.6703 12.1851 13.4608 12.9025H13.4364V12.0913C13.4344 11.9644 13.3309 11.8623 13.2039 11.8623H12.0524C11.9254 11.8623 11.8219 11.9644 11.8199 12.0913V18.3906C11.8224 18.5181 11.9254 18.6211 12.0529 18.6226Z" fill="#4804FF"/>
<path fill-rule="evenodd" clip-rule="evenodd" d="M43.2432 11.7284C42.3876 11.7284 41.9017 12.1405 41.5564 13.0064H41.532V12.0414C41.5081 11.933 41.4104 11.8578 41.2996 11.8617H40.1553C40.0289 11.8617 39.9263 11.9642 39.9263 12.0907V18.39C39.9263 18.517 40.0284 18.6205 40.1553 18.6225H41.3948C41.5218 18.6205 41.6238 18.517 41.6238 18.39V14.9886C41.6028 14.5765 41.6712 14.1643 41.8245 13.7809C41.9515 13.4996 42.2211 13.3097 42.5287 13.2843C42.8139 13.2843 43.3033 13.3228 43.3033 14.6014V18.4218C43.3184 18.5326 43.4102 18.6166 43.5216 18.6225H44.7644C44.8826 18.6254 44.9842 18.539 45.0003 18.4218V14.4534C45.0003 13.8405 45.0003 12.9888 44.68 12.4853C44.3698 11.9955 43.8229 11.7074 43.2432 11.7284Z" fill="#4804FF"/>
<path fill-rule="evenodd" clip-rule="evenodd" d="M14.6324 29.2656C13.4846 29.2971 12.3761 29.693 11.4681 30.3959C11.1187 29.6422 10.448 29.2656 9.45576 29.2656C8.37697 29.3025 7.33571 29.6682 6.47002 30.3129L6.37376 29.8068C6.36529 29.7148 6.32352 29.6295 6.25571 29.5665C6.18065 29.5217 6.09408 29.5005 6.0069 29.5054H5.32161C5.16905 29.4817 5.02618 29.5865 5.00318 29.739C4.99894 29.7675 4.99894 29.7959 5.00318 29.8244V37.2446C4.98199 37.3971 5.08914 37.5382 5.2417 37.5594C5.26833 37.563 5.29497 37.563 5.32161 37.5588H6.26419C6.41675 37.5818 6.55901 37.477 6.58201 37.3245C6.58625 37.2978 6.58625 37.2712 6.58262 37.2446V31.2386C7.27639 30.7863 8.08518 30.5424 8.91334 30.5357C9.27597 30.5048 9.63193 30.6471 9.87348 30.9195C10.1005 31.267 10.2064 31.6799 10.175 32.094V37.2446C10.1538 37.3971 10.2609 37.5382 10.4135 37.5594C10.4401 37.563 10.4668 37.563 10.4934 37.5588H11.4317C11.5867 37.5818 11.7308 37.4746 11.7538 37.3196C11.7574 37.2948 11.758 37.2694 11.755 37.2446V31.4741C11.7599 31.3941 11.7599 31.3142 11.755 31.2337C12.4566 30.7827 13.2697 30.5351 14.1033 30.5182C14.4653 30.4861 14.8207 30.6289 15.0592 30.902C15.2898 31.2476 15.3976 31.6617 15.3649 32.0764V37.227C15.3437 37.3796 15.4509 37.5206 15.6034 37.5418C15.6301 37.5454 15.6567 37.5454 15.6833 37.5412H16.6259C16.7785 37.5642 16.9207 37.4595 16.9437 37.3069C16.948 37.2803 16.948 37.2536 16.9443 37.227V31.6484C16.9813 31.0121 16.77 30.3862 16.3553 29.9025C15.9001 29.4521 15.2717 29.2202 14.6324 29.2656Z" fill="#4804FF"/>
<path fill-rule="evenodd" clip-rule="evenodd" d="M25.75 29.5062H24.8074C24.6549 29.4826 24.512 29.5874 24.489 29.7399C24.4848 29.7684 24.4848 29.7968 24.489 29.8253V35.7659C23.8092 36.2448 23.0022 36.5105 22.171 36.5299C21.7715 36.5656 21.3767 36.4161 21.1019 36.1237C20.8495 35.7538 20.7308 35.3088 20.7659 34.8621V29.8247C20.7895 29.6721 20.6848 29.5292 20.5322 29.5062C20.5038 29.502 20.4753 29.502 20.4469 29.5062H19.5043C19.3517 29.4826 19.2089 29.5874 19.1859 29.7399C19.1816 29.7684 19.1816 29.7968 19.1859 29.8253V35.3688C19.1471 36.0189 19.3651 36.6582 19.7925 37.1498C20.258 37.6002 20.8924 37.8321 21.5384 37.7873C22.6493 37.7649 23.722 37.3798 24.5938 36.6915L24.7027 37.2461C24.7106 37.3387 24.7548 37.4253 24.825 37.4864C24.8977 37.533 24.9836 37.5542 25.0696 37.5475H25.7591C25.9117 37.5705 26.0539 37.4658 26.0769 37.3133C26.0812 37.2866 26.0812 37.26 26.0775 37.2333V29.812C26.0945 29.6588 25.9837 29.5208 25.8305 29.5038C25.8033 29.5002 25.7767 29.5014 25.75 29.5062Z" fill="#4804FF"/>
<path fill-rule="evenodd" clip-rule="evenodd" d="M31.9478 33.1769L30.7037 32.6969C30.3393 32.5837 29.9979 32.4063 29.6952 32.1732C29.5196 32.0037 29.4258 31.7664 29.4379 31.523C29.4379 30.8335 29.953 30.4884 30.9743 30.4884C31.5658 30.4866 32.1542 30.5738 32.7203 30.7457C32.8383 30.7875 32.9618 30.8141 33.0871 30.8244C33.227 30.8244 33.2966 30.7282 33.2966 30.5363V30.0998C33.3051 29.9902 33.2754 29.8806 33.2136 29.7898C33.1416 29.7093 33.0472 29.6518 32.943 29.624C32.2941 29.3812 31.6064 29.2571 30.9132 29.2571C30.1571 29.2214 29.4112 29.4466 28.8004 29.8946C28.2755 30.2856 27.9741 30.908 27.9928 31.5618C27.9928 32.6091 28.5837 33.3513 29.7648 33.7878L31.0742 34.303C31.4023 34.4047 31.7087 34.5657 31.9781 34.7788C32.1433 34.9416 32.2323 35.1668 32.2226 35.3987C32.2402 35.7389 32.0882 36.0658 31.8164 36.2717C31.4623 36.4951 31.047 36.6004 30.6293 36.5725C29.8889 36.5731 29.1527 36.4599 28.4469 36.2366C28.3191 36.1881 28.1853 36.156 28.0497 36.1403C27.919 36.1403 27.8578 36.2366 27.8578 36.4285V36.8649C27.8487 36.9703 27.8736 37.0756 27.9274 37.1658C27.9989 37.2469 28.0909 37.3075 28.1938 37.3402C28.9602 37.6441 29.7793 37.7924 30.6032 37.7766C31.4036 37.8287 32.1978 37.6071 32.8553 37.1483C33.4104 36.7148 33.7228 36.0404 33.6931 35.337C33.7101 34.8623 33.5551 34.3974 33.2566 34.0275C32.8958 33.6431 32.4466 33.3507 31.9478 33.1769Z" fill="#4804FF"/>
<path d="M35.7153 29.5061H36.6579C36.834 29.5061 36.9763 29.649 36.9763 29.8245V37.2447C36.9763 37.4209 36.8334 37.5631 36.6579 37.5631H35.7153C35.5391 37.5631 35.3969 37.4203 35.3969 37.2447V29.8245C35.3962 29.6484 35.5391 29.5061 35.7153 29.5061Z" fill="#4804FF"/>
<path fill-rule="evenodd" clip-rule="evenodd" d="M36.194 26.1667C35.9271 26.151 35.6649 26.246 35.4694 26.4289C35.1134 26.8211 35.1134 27.4199 35.4694 27.8128C35.8895 28.1615 36.4985 28.1615 36.9187 27.8128C37.2746 27.4205 37.2746 26.8217 36.9187 26.4289C36.7231 26.246 36.461 26.151 36.194 26.1667Z" fill="#4804FF"/>
<path fill-rule="evenodd" clip-rule="evenodd" d="M44.8027 36.18C44.721 36.1861 44.6405 36.2024 44.5624 36.2278C44.0968 36.3695 43.6131 36.4446 43.1264 36.4506C42.4278 36.5112 41.7377 36.2642 41.2364 35.7738C40.835 35.3258 40.6341 34.6199 40.6341 33.6568V33.4516C40.6341 32.4654 40.832 31.7462 41.2279 31.2952C41.6208 30.8587 42.2668 30.6232 43.1573 30.6232C43.6004 30.6244 44.0412 30.6874 44.4667 30.8109C44.5503 30.8381 44.6368 30.8545 44.724 30.8587C44.8596 30.8587 44.9293 30.754 44.9293 30.5403V30.1038C44.9389 29.993 44.9147 29.8816 44.8596 29.7854C44.7924 29.7115 44.7065 29.657 44.6108 29.628C44.0684 29.4294 43.4951 29.3271 42.917 29.3271C41.8315 29.2599 40.7697 29.6619 40.0014 30.4313C39.3161 31.1644 38.9711 32.2081 38.9711 33.552C38.9711 34.896 39.3071 35.9439 39.9706 36.6601C40.7345 37.4174 41.7867 37.8097 42.86 37.7383C43.483 37.7504 44.1023 37.636 44.6804 37.4023C44.7803 37.3708 44.8687 37.3103 44.9335 37.2279C44.9837 37.1359 45.0061 37.0312 44.9989 36.9271V36.49C45.0122 36.2763 44.9426 36.18 44.8027 36.18Z" fill="#4804FF"/>
<path d="M62.352 14.964H65.768V16H61.078V6.242H62.352V14.964ZM67.779 7.082C67.5363 7.082 67.331 6.998 67.163 6.83C66.995 6.662 66.911 6.45667 66.911 6.214C66.911 5.97133 66.995 5.766 67.163 5.598C67.331 5.43 67.5363 5.346 67.779 5.346C68.0123 5.346 68.2083 5.43 68.367 5.598C68.535 5.766 68.619 5.97133 68.619 6.214C68.619 6.45667 68.535 6.662 68.367 6.83C68.2083 6.998 68.0123 7.082 67.779 7.082ZM68.395 8.328V16H67.121V8.328H68.395ZM73.2823 16.126C72.6943 16.126 72.1669 16.028 71.7003 15.832C71.2336 15.6267 70.8649 15.3467 70.5943 14.992C70.3236 14.628 70.1743 14.2127 70.1463 13.746H71.4623C71.4996 14.1287 71.6769 14.4413 71.9943 14.684C72.3209 14.9267 72.7456 15.048 73.2683 15.048C73.7536 15.048 74.1363 14.9407 74.4163 14.726C74.6963 14.5113 74.8363 14.2407 74.8363 13.914C74.8363 13.578 74.6869 13.3307 74.3883 13.172C74.0896 13.004 73.6276 12.8407 73.0023 12.682C72.4329 12.5327 71.9663 12.3833 71.6023 12.234C71.2476 12.0753 70.9396 11.8467 70.6783 11.548C70.4263 11.24 70.3003 10.8387 70.3003 10.344C70.3003 9.952 70.4169 9.59267 70.6503 9.266C70.8836 8.93933 71.2149 8.68267 71.6443 8.496C72.0736 8.3 72.5636 8.202 73.1143 8.202C73.9636 8.202 74.6496 8.41667 75.1723 8.846C75.6949 9.27533 75.9749 9.86333 76.0123 10.61H74.7383C74.7103 10.2087 74.5469 9.88667 74.2483 9.644C73.9589 9.40133 73.5669 9.28 73.0723 9.28C72.6149 9.28 72.2509 9.378 71.9803 9.574C71.7096 9.77 71.5743 10.0267 71.5743 10.344C71.5743 10.596 71.6536 10.806 71.8123 10.974C71.9803 11.1327 72.1856 11.2633 72.4283 11.366C72.6803 11.4593 73.0256 11.5667 73.4643 11.688C74.0149 11.8373 74.4629 11.9867 74.8083 12.136C75.1536 12.276 75.4476 12.4907 75.6903 12.78C75.9423 13.0693 76.0729 13.4473 76.0823 13.914C76.0823 14.334 75.9656 14.712 75.7323 15.048C75.4989 15.384 75.1676 15.65 74.7383 15.846C74.3183 16.0327 73.8329 16.126 73.2823 16.126ZM79.4347 9.378V13.9C79.4347 14.2733 79.5141 14.5393 79.6727 14.698C79.8314 14.8473 80.1067 14.922 80.4987 14.922H81.4367V16H80.2887C79.5794 16 79.0474 15.8367 78.6927 15.51C78.3381 15.1833 78.1607 14.6467 78.1607 13.9V9.378H77.1667V8.328H78.1607V6.396H79.4347V8.328H81.4367V9.378H79.4347ZM89.9803 11.87C89.9803 12.1127 89.9663 12.3693 89.9383 12.64H83.8063C83.853 13.396 84.1097 13.9887 84.5763 14.418C85.0523 14.838 85.6263 15.048 86.2983 15.048C86.849 15.048 87.3063 14.922 87.6703 14.67C88.0437 14.4087 88.305 14.0633 88.4543 13.634H89.8263C89.621 14.3713 89.2103 14.9733 88.5943 15.44C87.9783 15.8973 87.213 16.126 86.2983 16.126C85.5703 16.126 84.917 15.9627 84.3383 15.636C83.769 15.3093 83.321 14.8473 82.9943 14.25C82.6677 13.6433 82.5043 12.9433 82.5043 12.15C82.5043 11.3567 82.663 10.6613 82.9803 10.064C83.2977 9.46667 83.741 9.00933 84.3103 8.692C84.889 8.36533 85.5517 8.202 86.2983 8.202C87.0263 8.202 87.6703 8.36067 88.2303 8.678C88.7903 8.99533 89.2197 9.434 89.5183 9.994C89.8263 10.5447 89.9803 11.17 89.9803 11.87ZM88.6643 11.604C88.6643 11.1187 88.557 10.7033 88.3423 10.358C88.1277 10.0033 87.8337 9.73733 87.4603 9.56C87.0963 9.37333 86.6903 9.28 86.2423 9.28C85.5983 9.28 85.0477 9.48533 84.5903 9.896C84.1423 10.3067 83.8857 10.876 83.8203 11.604H88.6643ZM95.4 8.188C96.3333 8.188 97.0893 8.47267 97.668 9.042C98.2467 9.602 98.536 10.414 98.536 11.478V16H97.276V11.66C97.276 10.8947 97.0847 10.3113 96.702 9.91C96.3193 9.49933 95.7967 9.294 95.134 9.294C94.462 9.294 93.9253 9.504 93.524 9.924C93.132 10.344 92.936 10.9553 92.936 11.758V16H91.662V8.328H92.936V9.42C93.188 9.028 93.5287 8.72467 93.958 8.51C94.3967 8.29533 94.8773 8.188 95.4 8.188ZM107.695 16.126C106.977 16.126 106.323 15.9627 105.735 15.636C105.157 15.3093 104.699 14.8473 104.363 14.25C104.037 13.6433 103.873 12.9433 103.873 12.15C103.873 11.366 104.041 10.6753 104.377 10.078C104.723 9.47133 105.189 9.00933 105.777 8.692C106.365 8.36533 107.023 8.202 107.751 8.202C108.479 8.202 109.137 8.36533 109.725 8.692C110.313 9.00933 110.775 9.46667 111.111 10.064C111.457 10.6613 111.629 11.3567 111.629 12.15C111.629 12.9433 111.452 13.6433 111.097 14.25C110.752 14.8473 110.281 15.3093 109.683 15.636C109.086 15.9627 108.423 16.126 107.695 16.126ZM107.695 15.006C108.153 15.006 108.582 14.8987 108.983 14.684C109.385 14.4693 109.707 14.1473 109.949 13.718C110.201 13.2887 110.327 12.766 110.327 12.15C110.327 11.534 110.206 11.0113 109.963 10.582C109.721 10.1527 109.403 9.83533 109.011 9.63C108.619 9.41533 108.195 9.308 107.737 9.308C107.271 9.308 106.841 9.41533 106.449 9.63C106.067 9.83533 105.759 10.1527 105.525 10.582C105.292 11.0113 105.175 11.534 105.175 12.15C105.175 12.7753 105.287 13.3027 105.511 13.732C105.745 14.1613 106.053 14.4833 106.435 14.698C106.818 14.9033 107.238 15.006 107.695 15.006ZM117.043 8.188C117.976 8.188 118.732 8.47267 119.311 9.042C119.889 9.602 120.179 10.414 120.179 11.478V16H118.919V11.66C118.919 10.8947 118.727 10.3113 118.345 9.91C117.962 9.49933 117.439 9.294 116.777 9.294C116.105 9.294 115.568 9.504 115.167 9.924C114.775 10.344 114.579 10.9553 114.579 11.758V16H113.305V8.328H114.579V9.42C114.831 9.028 115.171 8.72467 115.601 8.51C116.039 8.29533 116.52 8.188 117.043 8.188Z" fill="#1B2B41" fill-opacity="0.72"/>
<path d="M69.88 38.16H64.06L63.06 41H60.68L65.66 27.08H68.3L73.28 41H70.88L69.88 38.16ZM69.24 36.3L66.98 29.84L64.7 36.3H69.24ZM88.7853 29.8C89.652 29.8 90.4253 29.98 91.1053 30.34C91.7986 30.7 92.3386 31.2333 92.7253 31.94C93.1253 32.6467 93.3253 33.5 93.3253 34.5V41H91.0653V34.84C91.0653 33.8533 90.8186 33.1 90.3253 32.58C89.832 32.0467 89.1586 31.78 88.3053 31.78C87.452 31.78 86.772 32.0467 86.2653 32.58C85.772 33.1 85.5253 33.8533 85.5253 34.84V41H83.2653V34.84C83.2653 33.8533 83.0186 33.1 82.5253 32.58C82.032 32.0467 81.3586 31.78 80.5053 31.78C79.652 31.78 78.972 32.0467 78.4653 32.58C77.972 33.1 77.7253 33.8533 77.7253 34.84V41H75.4453V29.98H77.7253V31.24C78.0986 30.7867 78.572 30.4333 79.1453 30.18C79.7186 29.9267 80.332 29.8 80.9853 29.8C81.8653 29.8 82.652 29.9867 83.3453 30.36C84.0386 30.7333 84.572 31.2733 84.9453 31.98C85.2786 31.3133 85.7986 30.7867 86.5053 30.4C87.212 30 87.972 29.8 88.7853 29.8ZM95.4666 35.44C95.4666 34.3333 95.6932 33.3533 96.1466 32.5C96.6132 31.6467 97.2399 30.9867 98.0266 30.52C98.8266 30.04 99.7066 29.8 100.667 29.8C101.533 29.8 102.287 29.9733 102.927 30.32C103.58 30.6533 104.1 31.0733 104.487 31.58V29.98H106.787V41H104.487V39.36C104.1 39.88 103.573 40.3133 102.907 40.66C102.24 41.0067 101.48 41.18 100.627 41.18C99.6799 41.18 98.8132 40.94 98.0266 40.46C97.2399 39.9667 96.6132 39.2867 96.1466 38.42C95.6932 37.54 95.4666 36.5467 95.4666 35.44ZM104.487 35.48C104.487 34.72 104.327 34.06 104.007 33.5C103.7 32.94 103.293 32.5133 102.787 32.22C102.28 31.9267 101.733 31.78 101.147 31.78C100.56 31.78 100.013 31.9267 99.5066 32.22C98.9999 32.5 98.5866 32.92 98.2666 33.48C97.9599 34.0267 97.8066 34.68 97.8066 35.44C97.8066 36.2 97.9599 36.8667 98.2666 37.44C98.5866 38.0133 98.9999 38.4533 99.5066 38.76C100.027 39.0533 100.573 39.2 101.147 39.2C101.733 39.2 102.28 39.0533 102.787 38.76C103.293 38.4667 103.7 38.04 104.007 37.48C104.327 36.9067 104.487 36.24 104.487 35.48ZM111.801 39.14H116.801V41H109.161V39.14L114.181 31.84H109.161V29.98H116.801V31.84L111.801 39.14ZM123.975 41.18C122.935 41.18 121.995 40.9467 121.155 40.48C120.315 40 119.655 39.3333 119.175 38.48C118.695 37.6133 118.455 36.6133 118.455 35.48C118.455 34.36 118.702 33.3667 119.195 32.5C119.689 31.6333 120.362 30.9667 121.215 30.5C122.069 30.0333 123.022 29.8 124.075 29.8C125.129 29.8 126.082 30.0333 126.935 30.5C127.789 30.9667 128.462 31.6333 128.955 32.5C129.449 33.3667 129.695 34.36 129.695 35.48C129.695 36.6 129.442 37.5933 128.935 38.46C128.429 39.3267 127.735 40 126.855 40.48C125.989 40.9467 125.029 41.18 123.975 41.18ZM123.975 39.2C124.562 39.2 125.109 39.06 125.615 38.78C126.135 38.5 126.555 38.08 126.875 37.52C127.195 36.96 127.355 36.28 127.355 35.48C127.355 34.68 127.202 34.0067 126.895 33.46C126.589 32.9 126.182 32.48 125.675 32.2C125.169 31.92 124.622 31.78 124.035 31.78C123.449 31.78 122.902 31.92 122.395 32.2C121.902 32.48 121.509 32.9 121.215 33.46C120.922 34.0067 120.775 34.68 120.775 35.48C120.775 36.6667 121.075 37.5867 121.675 38.24C122.289 38.88 123.055 39.2 123.975 39.2ZM137.509 29.8C138.376 29.8 139.149 29.98 139.829 30.34C140.523 30.7 141.063 31.2333 141.449 31.94C141.836 32.6467 142.029 33.5 142.029 34.5V41H139.769V34.84C139.769 33.8533 139.523 33.1 139.029 32.58C138.536 32.0467 137.863 31.78 137.009 31.78C136.156 31.78 135.476 32.0467 134.969 32.58C134.476 33.1 134.229 33.8533 134.229 34.84V41H131.949V29.98H134.229V31.24C134.603 30.7867 135.076 30.4333 135.649 30.18C136.236 29.9267 136.856 29.8 137.509 29.8ZM164.773 27.1V41H162.493V31.48L158.253 41H156.673L152.413 31.48V41H150.133V27.1H152.593L157.473 38L162.333 27.1H164.773ZM177.75 29.98V41H175.47V39.7C175.11 40.1533 174.636 40.5133 174.05 40.78C173.476 41.0333 172.863 41.16 172.21 41.16C171.343 41.16 170.563 40.98 169.87 40.62C169.19 40.26 168.65 39.7267 168.25 39.02C167.863 38.3133 167.67 37.46 167.67 36.46V29.98H169.93V36.12C169.93 37.1067 170.176 37.8667 170.67 38.4C171.163 38.92 171.836 39.18 172.69 39.18C173.543 39.18 174.216 38.92 174.71 38.4C175.216 37.8667 175.47 37.1067 175.47 36.12V29.98H177.75ZM184.758 41.18C183.891 41.18 183.111 41.0267 182.418 40.72C181.738 40.4 181.198 39.9733 180.798 39.44C180.398 38.8933 180.184 38.2867 180.158 37.62H182.518C182.558 38.0867 182.778 38.48 183.178 38.8C183.591 39.1067 184.104 39.26 184.718 39.26C185.358 39.26 185.851 39.14 186.198 38.9C186.558 38.6467 186.738 38.3267 186.738 37.94C186.738 37.5267 186.538 37.22 186.138 37.02C185.751 36.82 185.131 36.6 184.278 36.36C183.451 36.1333 182.778 35.9133 182.258 35.7C181.738 35.4867 181.284 35.16 180.898 34.72C180.524 34.28 180.338 33.7 180.338 32.98C180.338 32.3933 180.511 31.86 180.858 31.38C181.204 30.8867 181.698 30.5 182.338 30.22C182.991 29.94 183.738 29.8 184.578 29.8C185.831 29.8 186.838 30.12 187.598 30.76C188.371 31.3867 188.784 32.2467 188.838 33.34H186.558C186.518 32.8467 186.318 32.4533 185.958 32.16C185.598 31.8667 185.111 31.72 184.498 31.72C183.898 31.72 183.438 31.8333 183.118 32.06C182.798 32.2867 182.638 32.5867 182.638 32.96C182.638 33.2533 182.744 33.5 182.958 33.7C183.171 33.9 183.431 34.06 183.738 34.18C184.044 34.2867 184.498 34.4267 185.098 34.6C185.898 34.8133 186.551 35.0333 187.058 35.26C187.578 35.4733 188.024 35.7933 188.398 36.22C188.771 36.6467 188.964 37.2133 188.978 37.92C188.978 38.5467 188.804 39.1067 188.458 39.6C188.111 40.0933 187.618 40.48 186.978 40.76C186.351 41.04 185.611 41.18 184.758 41.18ZM192.601 28.52C192.188 28.52 191.841 28.38 191.561 28.1C191.281 27.82 191.141 27.4733 191.141 27.06C191.141 26.6467 191.281 26.3 191.561 26.02C191.841 25.74 192.188 25.6 192.601 25.6C193.001 25.6 193.341 25.74 193.621 26.02C193.901 26.3 194.041 26.6467 194.041 27.06C194.041 27.4733 193.901 27.82 193.621 28.1C193.341 28.38 193.001 28.52 192.601 28.52ZM193.721 29.98V41H191.441V29.98H193.721ZM195.955 35.48C195.955 34.3467 196.182 33.3533 196.635 32.5C197.102 31.6333 197.742 30.9667 198.555 30.5C199.368 30.0333 200.302 29.8 201.355 29.8C202.688 29.8 203.788 30.12 204.655 30.76C205.535 31.3867 206.128 32.2867 206.435 33.46H203.975C203.775 32.9133 203.455 32.4867 203.015 32.18C202.575 31.8733 202.022 31.72 201.355 31.72C200.422 31.72 199.675 32.0533 199.115 32.72C198.568 33.3733 198.295 34.2933 198.295 35.48C198.295 36.6667 198.568 37.5933 199.115 38.26C199.675 38.9267 200.422 39.26 201.355 39.26C202.675 39.26 203.548 38.68 203.975 37.52H206.435C206.115 38.64 205.515 39.5333 204.635 40.2C203.755 40.8533 202.662 41.18 201.355 41.18C200.302 41.18 199.368 40.9467 198.555 40.48C197.742 40 197.102 39.3333 196.635 38.48C196.182 37.6133 195.955 36.6133 195.955 35.48Z" fill="#192434"/>
</svg>
