<svg width="206" height="50" viewBox="0 0 206 50" fill="none" xmlns="http://www.w3.org/2000/svg">
<path fill-rule="evenodd" clip-rule="evenodd" d="M42.6082 38.4472C42.2518 39.3526 41.4294 40.6273 40.2631 41.5252C39.5897 42.0438 38.7858 42.5396 37.6816 42.8667C36.5045 43.2155 35.0546 43.3334 33.25 43.3334H16.7501C14.9457 43.3334 13.4958 43.2155 12.3186 42.8667C11.2143 42.5396 10.4106 42.0438 9.73705 41.5252C8.57088 40.6272 7.74831 39.3526 7.39189 38.4472C6.67394 36.6232 6.66666 34.5536 6.66666 33.2501V16.75C6.66666 15.4466 6.67394 13.377 7.39189 11.5529C7.74831 10.6476 8.57074 9.37285 9.73705 8.47495C10.4104 7.95634 11.2143 7.46061 12.3186 7.13348C13.4957 6.78463 14.9455 6.66675 16.7501 6.66675H33.2502C35.0546 6.66675 36.5045 6.78463 37.6817 7.13348C38.7859 7.46061 39.5897 7.95649 40.2632 8.47495C41.4294 9.373 42.252 10.6476 42.6084 11.5529C43.3263 13.377 43.3336 15.4466 43.3336 16.75V33.2501C43.3336 34.5534 43.3262 36.623 42.6082 38.4472Z" fill="url(#paint0_linear_73_394)"/>
<path d="M27.6593 27.742C27.1091 27.1614 26.1427 26.7893 25.0019 26.7893C23.8609 26.7893 22.8946 27.1614 22.3443 27.742C22.0573 28.0449 21.9054 28.3554 21.8576 28.7978C21.765 29.6545 21.817 30.3921 21.9174 31.5714C22.013 32.6952 22.1945 34.1937 22.4315 35.7199C22.6001 36.8061 22.737 37.3923 22.8618 37.8121C23.064 38.4925 23.8199 39.0875 25.0019 39.0875C26.1838 39.0875 26.9396 38.4924 27.1419 37.8121C27.2666 37.3923 27.4036 36.8061 27.5722 35.7199C27.8091 34.1937 27.9907 32.6952 28.0863 31.5714C28.1867 30.392 28.2387 29.6544 28.146 28.7978C28.0982 28.3556 27.9464 28.0449 27.6593 27.742ZM22.0039 22.573C22.0039 24.2302 23.3474 25.5737 25.0047 25.5737C26.6621 25.5737 28.0056 24.2302 28.0056 22.573C28.0056 20.9156 26.6621 19.5721 25.0047 19.5721C23.3474 19.5721 22.0039 20.9156 22.0039 22.573ZM24.9675 10.7305C17.9494 10.7505 12.1987 16.4441 12.1118 23.4618C12.0413 29.1467 15.6702 34.0095 20.7375 35.7919C20.8605 35.8352 20.9854 35.7331 20.966 35.6041C20.8995 35.1627 20.8369 34.7192 20.7793 34.283C20.7589 34.1289 20.6607 33.996 20.5184 33.9338C16.5132 32.184 13.7165 28.1672 13.7613 23.5143C13.8202 17.4082 18.8063 12.4302 24.9124 12.3808C31.1548 12.3304 36.2492 17.3938 36.2492 23.6246C36.2492 28.2308 33.4647 32.1984 29.4907 33.9342C29.3483 33.9964 29.2507 34.1297 29.2305 34.2838C29.1729 34.7198 29.1102 35.1632 29.0439 35.6041C29.0244 35.7331 29.1493 35.8352 29.2723 35.7921C34.2912 34.0267 37.899 29.2395 37.899 23.6247C37.8987 16.5023 32.0944 10.7102 24.9675 10.7305ZM24.7345 16.6459C28.713 16.4919 31.9986 19.6837 31.9986 23.6285C31.9986 25.6348 31.1487 27.446 29.7902 28.7216C29.6749 28.8297 29.613 28.9833 29.6219 29.1411C29.649 29.621 29.639 30.0873 29.6071 30.6139C29.5985 30.7542 29.7559 30.8438 29.872 30.7647C32.1502 29.2079 33.6486 26.5901 33.6486 23.6285C33.6486 18.7523 29.5869 14.8067 24.6691 14.9973C20.0988 15.1745 16.4322 18.9426 16.3736 23.516C16.3351 26.5239 17.8427 29.1886 20.1501 30.765C20.266 30.8441 20.4229 30.7544 20.4143 30.6142C20.3823 30.0873 20.3725 29.621 20.3995 29.1411C20.4083 28.9835 20.3466 28.8299 20.2316 28.7219C18.8307 27.4067 17.9704 25.5218 18.0251 23.441C18.1216 19.7791 21.074 16.7877 24.7345 16.6459Z" fill="white"/>
<path d="M62.352 14.964H65.768V16H61.078V6.242H62.352V14.964ZM67.779 7.082C67.5363 7.082 67.331 6.998 67.163 6.83C66.995 6.662 66.911 6.45667 66.911 6.214C66.911 5.97133 66.995 5.766 67.163 5.598C67.331 5.43 67.5363 5.346 67.779 5.346C68.0123 5.346 68.2083 5.43 68.367 5.598C68.535 5.766 68.619 5.97133 68.619 6.214C68.619 6.45667 68.535 6.662 68.367 6.83C68.2083 6.998 68.0123 7.082 67.779 7.082ZM68.395 8.328V16H67.121V8.328H68.395ZM73.2823 16.126C72.6943 16.126 72.1669 16.028 71.7003 15.832C71.2336 15.6267 70.8649 15.3467 70.5943 14.992C70.3236 14.628 70.1743 14.2127 70.1463 13.746H71.4623C71.4996 14.1287 71.6769 14.4413 71.9943 14.684C72.3209 14.9267 72.7456 15.048 73.2683 15.048C73.7536 15.048 74.1363 14.9407 74.4163 14.726C74.6963 14.5113 74.8363 14.2407 74.8363 13.914C74.8363 13.578 74.6869 13.3307 74.3883 13.172C74.0896 13.004 73.6276 12.8407 73.0023 12.682C72.4329 12.5327 71.9663 12.3833 71.6023 12.234C71.2476 12.0753 70.9396 11.8467 70.6783 11.548C70.4263 11.24 70.3003 10.8387 70.3003 10.344C70.3003 9.952 70.4169 9.59267 70.6503 9.266C70.8836 8.93933 71.2149 8.68267 71.6443 8.496C72.0736 8.3 72.5636 8.202 73.1143 8.202C73.9636 8.202 74.6496 8.41667 75.1723 8.846C75.6949 9.27533 75.9749 9.86333 76.0123 10.61H74.7383C74.7103 10.2087 74.5469 9.88667 74.2483 9.644C73.9589 9.40133 73.5669 9.28 73.0723 9.28C72.6149 9.28 72.2509 9.378 71.9803 9.574C71.7096 9.77 71.5743 10.0267 71.5743 10.344C71.5743 10.596 71.6536 10.806 71.8123 10.974C71.9803 11.1327 72.1856 11.2633 72.4283 11.366C72.6803 11.4593 73.0256 11.5667 73.4643 11.688C74.0149 11.8373 74.4629 11.9867 74.8083 12.136C75.1536 12.276 75.4476 12.4907 75.6903 12.78C75.9423 13.0693 76.0729 13.4473 76.0823 13.914C76.0823 14.334 75.9656 14.712 75.7323 15.048C75.4989 15.384 75.1676 15.65 74.7383 15.846C74.3183 16.0327 73.8329 16.126 73.2823 16.126ZM79.4347 9.378V13.9C79.4347 14.2733 79.5141 14.5393 79.6727 14.698C79.8314 14.8473 80.1067 14.922 80.4987 14.922H81.4367V16H80.2887C79.5794 16 79.0474 15.8367 78.6927 15.51C78.3381 15.1833 78.1607 14.6467 78.1607 13.9V9.378H77.1667V8.328H78.1607V6.396H79.4347V8.328H81.4367V9.378H79.4347ZM89.9803 11.87C89.9803 12.1127 89.9663 12.3693 89.9383 12.64H83.8063C83.853 13.396 84.1097 13.9887 84.5763 14.418C85.0523 14.838 85.6263 15.048 86.2983 15.048C86.849 15.048 87.3063 14.922 87.6703 14.67C88.0437 14.4087 88.305 14.0633 88.4543 13.634H89.8263C89.621 14.3713 89.2103 14.9733 88.5943 15.44C87.9783 15.8973 87.213 16.126 86.2983 16.126C85.5703 16.126 84.917 15.9627 84.3383 15.636C83.769 15.3093 83.321 14.8473 82.9943 14.25C82.6677 13.6433 82.5043 12.9433 82.5043 12.15C82.5043 11.3567 82.663 10.6613 82.9803 10.064C83.2977 9.46667 83.741 9.00933 84.3103 8.692C84.889 8.36533 85.5517 8.202 86.2983 8.202C87.0263 8.202 87.6703 8.36067 88.2303 8.678C88.7903 8.99533 89.2197 9.434 89.5183 9.994C89.8263 10.5447 89.9803 11.17 89.9803 11.87ZM88.6643 11.604C88.6643 11.1187 88.557 10.7033 88.3423 10.358C88.1277 10.0033 87.8337 9.73733 87.4603 9.56C87.0963 9.37333 86.6903 9.28 86.2423 9.28C85.5983 9.28 85.0477 9.48533 84.5903 9.896C84.1423 10.3067 83.8857 10.876 83.8203 11.604H88.6643ZM95.4 8.188C96.3333 8.188 97.0893 8.47267 97.668 9.042C98.2467 9.602 98.536 10.414 98.536 11.478V16H97.276V11.66C97.276 10.8947 97.0847 10.3113 96.702 9.91C96.3193 9.49933 95.7967 9.294 95.134 9.294C94.462 9.294 93.9253 9.504 93.524 9.924C93.132 10.344 92.936 10.9553 92.936 11.758V16H91.662V8.328H92.936V9.42C93.188 9.028 93.5287 8.72467 93.958 8.51C94.3967 8.29533 94.8773 8.188 95.4 8.188ZM107.695 16.126C106.977 16.126 106.323 15.9627 105.735 15.636C105.157 15.3093 104.699 14.8473 104.363 14.25C104.037 13.6433 103.873 12.9433 103.873 12.15C103.873 11.366 104.041 10.6753 104.377 10.078C104.723 9.47133 105.189 9.00933 105.777 8.692C106.365 8.36533 107.023 8.202 107.751 8.202C108.479 8.202 109.137 8.36533 109.725 8.692C110.313 9.00933 110.775 9.46667 111.111 10.064C111.457 10.6613 111.629 11.3567 111.629 12.15C111.629 12.9433 111.452 13.6433 111.097 14.25C110.752 14.8473 110.281 15.3093 109.683 15.636C109.086 15.9627 108.423 16.126 107.695 16.126ZM107.695 15.006C108.153 15.006 108.582 14.8987 108.983 14.684C109.385 14.4693 109.707 14.1473 109.949 13.718C110.201 13.2887 110.327 12.766 110.327 12.15C110.327 11.534 110.206 11.0113 109.963 10.582C109.721 10.1527 109.403 9.83533 109.011 9.63C108.619 9.41533 108.195 9.308 107.737 9.308C107.271 9.308 106.841 9.41533 106.449 9.63C106.067 9.83533 105.759 10.1527 105.525 10.582C105.292 11.0113 105.175 11.534 105.175 12.15C105.175 12.7753 105.287 13.3027 105.511 13.732C105.745 14.1613 106.053 14.4833 106.435 14.698C106.818 14.9033 107.238 15.006 107.695 15.006ZM117.043 8.188C117.976 8.188 118.732 8.47267 119.311 9.042C119.889 9.602 120.179 10.414 120.179 11.478V16H118.919V11.66C118.919 10.8947 118.727 10.3113 118.345 9.91C117.962 9.49933 117.439 9.294 116.777 9.294C116.105 9.294 115.568 9.504 115.167 9.924C114.775 10.344 114.579 10.9553 114.579 11.758V16H113.305V8.328H114.579V9.42C114.831 9.028 115.171 8.72467 115.601 8.51C116.039 8.29533 116.52 8.188 117.043 8.188Z" fill="#1B2B41" fill-opacity="0.72"/>
<path d="M69.88 38.16H64.06L63.06 41H60.68L65.66 27.08H68.3L73.28 41H70.88L69.88 38.16ZM69.24 36.3L66.98 29.84L64.7 36.3H69.24ZM77.7253 31.6C78.112 31.0933 78.6386 30.6667 79.3053 30.32C79.972 29.9733 80.7253 29.8 81.5653 29.8C82.5253 29.8 83.3986 30.04 84.1853 30.52C84.9853 30.9867 85.612 31.6467 86.0653 32.5C86.5186 33.3533 86.7453 34.3333 86.7453 35.44C86.7453 36.5467 86.5186 37.54 86.0653 38.42C85.612 39.2867 84.9853 39.9667 84.1853 40.46C83.3986 40.94 82.5253 41.18 81.5653 41.18C80.7253 41.18 79.9786 41.0133 79.3253 40.68C78.672 40.3333 78.1386 39.9067 77.7253 39.4V46.24H75.4453V29.98H77.7253V31.6ZM84.4253 35.44C84.4253 34.68 84.2653 34.0267 83.9453 33.48C83.6386 32.92 83.2253 32.5 82.7053 32.22C82.1986 31.9267 81.652 31.78 81.0653 31.78C80.492 31.78 79.9453 31.9267 79.4253 32.22C78.9186 32.5133 78.5053 32.94 78.1853 33.5C77.8786 34.06 77.7253 34.72 77.7253 35.48C77.7253 36.24 77.8786 36.9067 78.1853 37.48C78.5053 38.04 78.9186 38.4667 79.4253 38.76C79.9453 39.0533 80.492 39.2 81.0653 39.2C81.652 39.2 82.1986 39.0533 82.7053 38.76C83.2253 38.4533 83.6386 38.0133 83.9453 37.44C84.2653 36.8667 84.4253 36.2 84.4253 35.44ZM91.28 31.6C91.6667 31.0933 92.1933 30.6667 92.86 30.32C93.5267 29.9733 94.28 29.8 95.12 29.8C96.08 29.8 96.9533 30.04 97.74 30.52C98.54 30.9867 99.1667 31.6467 99.62 32.5C100.073 33.3533 100.3 34.3333 100.3 35.44C100.3 36.5467 100.073 37.54 99.62 38.42C99.1667 39.2867 98.54 39.9667 97.74 40.46C96.9533 40.94 96.08 41.18 95.12 41.18C94.28 41.18 93.5333 41.0133 92.88 40.68C92.2267 40.3333 91.6933 39.9067 91.28 39.4V46.24H89V29.98H91.28V31.6ZM97.98 35.44C97.98 34.68 97.82 34.0267 97.5 33.48C97.1933 32.92 96.78 32.5 96.26 32.22C95.7533 31.9267 95.2067 31.78 94.62 31.78C94.0467 31.78 93.5 31.9267 92.98 32.22C92.4733 32.5133 92.06 32.94 91.74 33.5C91.4333 34.06 91.28 34.72 91.28 35.48C91.28 36.24 91.4333 36.9067 91.74 37.48C92.06 38.04 92.4733 38.4667 92.98 38.76C93.5 39.0533 94.0467 39.2 94.62 39.2C95.2067 39.2 95.7533 39.0533 96.26 38.76C96.78 38.4533 97.1933 38.0133 97.5 37.44C97.82 36.8667 97.98 36.2 97.98 35.44ZM104.835 26.2V41H102.555V26.2H104.835ZM117.928 35.22C117.928 35.6333 117.901 36.0067 117.848 36.34H109.428C109.495 37.22 109.821 37.9267 110.408 38.46C110.995 38.9933 111.715 39.26 112.568 39.26C113.795 39.26 114.661 38.7467 115.168 37.72H117.628C117.295 38.7333 116.688 39.5667 115.808 40.22C114.941 40.86 113.861 41.18 112.568 41.18C111.515 41.18 110.568 40.9467 109.728 40.48C108.901 40 108.248 39.3333 107.768 38.48C107.301 37.6133 107.068 36.6133 107.068 35.48C107.068 34.3467 107.295 33.3533 107.748 32.5C108.215 31.6333 108.861 30.9667 109.688 30.5C110.528 30.0333 111.488 29.8 112.568 29.8C113.608 29.8 114.535 30.0267 115.348 30.48C116.161 30.9333 116.795 31.5733 117.248 32.4C117.701 33.2133 117.928 34.1533 117.928 35.22ZM115.548 34.5C115.535 33.66 115.235 32.9867 114.648 32.48C114.061 31.9733 113.335 31.72 112.468 31.72C111.681 31.72 111.008 31.9733 110.448 32.48C109.888 32.9733 109.555 33.6467 109.448 34.5H115.548ZM135.087 31.24C135.087 31.9467 134.921 32.6133 134.587 33.24C134.254 33.8667 133.721 34.38 132.987 34.78C132.254 35.1667 131.314 35.36 130.167 35.36H127.647V41H125.367V27.1H130.167C131.234 27.1 132.134 27.2867 132.867 27.66C133.614 28.02 134.167 28.5133 134.527 29.14C134.901 29.7667 135.087 30.4667 135.087 31.24ZM130.167 33.5C131.034 33.5 131.681 33.3067 132.107 32.92C132.534 32.52 132.747 31.96 132.747 31.24C132.747 29.72 131.887 28.96 130.167 28.96H127.647V33.5H130.167ZM142.042 41.18C141.002 41.18 140.062 40.9467 139.222 40.48C138.382 40 137.722 39.3333 137.242 38.48C136.762 37.6133 136.522 36.6133 136.522 35.48C136.522 34.36 136.768 33.3667 137.262 32.5C137.755 31.6333 138.428 30.9667 139.282 30.5C140.135 30.0333 141.088 29.8 142.142 29.8C143.195 29.8 144.148 30.0333 145.002 30.5C145.855 30.9667 146.528 31.6333 147.022 32.5C147.515 33.3667 147.762 34.36 147.762 35.48C147.762 36.6 147.508 37.5933 147.002 38.46C146.495 39.3267 145.802 40 144.922 40.48C144.055 40.9467 143.095 41.18 142.042 41.18ZM142.042 39.2C142.628 39.2 143.175 39.06 143.682 38.78C144.202 38.5 144.622 38.08 144.942 37.52C145.262 36.96 145.422 36.28 145.422 35.48C145.422 34.68 145.268 34.0067 144.962 33.46C144.655 32.9 144.248 32.48 143.742 32.2C143.235 31.92 142.688 31.78 142.102 31.78C141.515 31.78 140.968 31.92 140.462 32.2C139.968 32.48 139.575 32.9 139.282 33.46C138.988 34.0067 138.842 34.68 138.842 35.48C138.842 36.6667 139.142 37.5867 139.742 38.24C140.355 38.88 141.122 39.2 142.042 39.2ZM149.256 35.44C149.256 34.3333 149.482 33.3533 149.936 32.5C150.402 31.6467 151.029 30.9867 151.816 30.52C152.616 30.04 153.502 29.8 154.476 29.8C155.196 29.8 155.902 29.96 156.596 30.28C157.302 30.5867 157.862 31 158.276 31.52V26.2H160.576V41H158.276V39.34C157.902 39.8733 157.382 40.3133 156.716 40.66C156.062 41.0067 155.309 41.18 154.456 41.18C153.496 41.18 152.616 40.94 151.816 40.46C151.029 39.9667 150.402 39.2867 149.936 38.42C149.482 37.54 149.256 36.5467 149.256 35.44ZM158.276 35.48C158.276 34.72 158.116 34.06 157.796 33.5C157.489 32.94 157.082 32.5133 156.576 32.22C156.069 31.9267 155.522 31.78 154.936 31.78C154.349 31.78 153.802 31.9267 153.296 32.22C152.789 32.5 152.376 32.92 152.056 33.48C151.749 34.0267 151.596 34.68 151.596 35.44C151.596 36.2 151.749 36.8667 152.056 37.44C152.376 38.0133 152.789 38.4533 153.296 38.76C153.816 39.0533 154.362 39.2 154.936 39.2C155.522 39.2 156.069 39.0533 156.576 38.76C157.082 38.4667 157.489 38.04 157.796 37.48C158.116 36.9067 158.276 36.24 158.276 35.48ZM162.81 35.48C162.81 34.3467 163.037 33.3533 163.49 32.5C163.957 31.6333 164.597 30.9667 165.41 30.5C166.224 30.0333 167.157 29.8 168.21 29.8C169.544 29.8 170.644 30.12 171.51 30.76C172.39 31.3867 172.984 32.2867 173.29 33.46H170.83C170.63 32.9133 170.31 32.4867 169.87 32.18C169.43 31.8733 168.877 31.72 168.21 31.72C167.277 31.72 166.53 32.0533 165.97 32.72C165.424 33.3733 165.15 34.2933 165.15 35.48C165.15 36.6667 165.424 37.5933 165.97 38.26C166.53 38.9267 167.277 39.26 168.21 39.26C169.53 39.26 170.404 38.68 170.83 37.52H173.29C172.97 38.64 172.37 39.5333 171.49 40.2C170.61 40.8533 169.517 41.18 168.21 41.18C167.157 41.18 166.224 40.9467 165.41 40.48C164.597 40 163.957 39.3333 163.49 38.48C163.037 37.6133 162.81 36.6133 162.81 35.48ZM174.803 35.44C174.803 34.3333 175.029 33.3533 175.483 32.5C175.949 31.6467 176.576 30.9867 177.363 30.52C178.163 30.04 179.043 29.8 180.003 29.8C180.869 29.8 181.623 29.9733 182.263 30.32C182.916 30.6533 183.436 31.0733 183.823 31.58V29.98H186.123V41H183.823V39.36C183.436 39.88 182.909 40.3133 182.243 40.66C181.576 41.0067 180.816 41.18 179.963 41.18C179.016 41.18 178.149 40.94 177.363 40.46C176.576 39.9667 175.949 39.2867 175.483 38.42C175.029 37.54 174.803 36.5467 174.803 35.44ZM183.823 35.48C183.823 34.72 183.663 34.06 183.343 33.5C183.036 32.94 182.629 32.5133 182.123 32.22C181.616 31.9267 181.069 31.78 180.483 31.78C179.896 31.78 179.349 31.9267 178.843 32.22C178.336 32.5 177.923 32.92 177.603 33.48C177.296 34.0267 177.143 34.68 177.143 35.44C177.143 36.2 177.296 36.8667 177.603 37.44C177.923 38.0133 178.336 38.4533 178.843 38.76C179.363 39.0533 179.909 39.2 180.483 39.2C181.069 39.2 181.616 39.0533 182.123 38.76C182.629 38.4667 183.036 38.04 183.343 37.48C183.663 36.9067 183.823 36.24 183.823 35.48ZM193.117 41.18C192.251 41.18 191.471 41.0267 190.777 40.72C190.097 40.4 189.557 39.9733 189.157 39.44C188.757 38.8933 188.544 38.2867 188.517 37.62H190.877C190.917 38.0867 191.137 38.48 191.537 38.8C191.951 39.1067 192.464 39.26 193.077 39.26C193.717 39.26 194.211 39.14 194.557 38.9C194.917 38.6467 195.097 38.3267 195.097 37.94C195.097 37.5267 194.897 37.22 194.497 37.02C194.111 36.82 193.491 36.6 192.637 36.36C191.811 36.1333 191.137 35.9133 190.617 35.7C190.097 35.4867 189.644 35.16 189.257 34.72C188.884 34.28 188.697 33.7 188.697 32.98C188.697 32.3933 188.871 31.86 189.217 31.38C189.564 30.8867 190.057 30.5 190.697 30.22C191.351 29.94 192.097 29.8 192.937 29.8C194.191 29.8 195.197 30.12 195.957 30.76C196.731 31.3867 197.144 32.2467 197.197 33.34H194.917C194.877 32.8467 194.677 32.4533 194.317 32.16C193.957 31.8667 193.471 31.72 192.857 31.72C192.257 31.72 191.797 31.8333 191.477 32.06C191.157 32.2867 190.997 32.5867 190.997 32.96C190.997 33.2533 191.104 33.5 191.317 33.7C191.531 33.9 191.791 34.06 192.097 34.18C192.404 34.2867 192.857 34.4267 193.457 34.6C194.257 34.8133 194.911 35.0333 195.417 35.26C195.937 35.4733 196.384 35.7933 196.757 36.22C197.131 36.6467 197.324 37.2133 197.337 37.92C197.337 38.5467 197.164 39.1067 196.817 39.6C196.471 40.0933 195.977 40.48 195.337 40.76C194.711 41.04 193.971 41.18 193.117 41.18ZM202.461 31.84V37.94C202.461 38.3533 202.554 38.6533 202.741 38.84C202.941 39.0133 203.274 39.1 203.741 39.1H205.141V41H203.341C202.314 41 201.527 40.76 200.981 40.28C200.434 39.8 200.161 39.02 200.161 37.94V31.84H198.861V29.98H200.161V27.24H202.461V29.98H205.141V31.84H202.461Z" fill="#192434"/>
<defs>
<linearGradient id="paint0_linear_73_394" x1="25.0001" y1="6.66675" x2="25.0001" y2="43.3334" gradientUnits="userSpaceOnUse">
<stop stop-color="#F452FF"/>
<stop offset="1" stop-color="#832BC1"/>
</linearGradient>
</defs>
</svg>
