<svg width="220" height="50" viewBox="0 0 220 50" fill="none" xmlns="http://www.w3.org/2000/svg">
<path fill-rule="evenodd" clip-rule="evenodd" d="M22.7084 18.3335V23.8897V26.1106V31.6668H27.2917V26.1106V23.8897V18.3335H22.7084Z" fill="#FAB908"/>
<path d="M8.95835 26.0418C10.224 26.0418 11.25 25.0158 11.25 23.7502C11.25 22.4845 10.224 21.4585 8.95835 21.4585C7.6927 21.4585 6.66669 22.4845 6.66669 23.7502C6.66669 25.0158 7.6927 26.0418 8.95835 26.0418Z" fill="#0066D9"/>
<path d="M8.95835 28.5418C10.224 28.5418 11.25 27.5158 11.25 26.2502C11.25 24.9845 10.224 23.9585 8.95835 23.9585C7.6927 23.9585 6.66669 24.9845 6.66669 26.2502C6.66669 27.5158 7.6927 28.5418 8.95835 28.5418Z" fill="#0066D9"/>
<path d="M11.25 23.75H6.66669V26.25H11.25V23.75Z" fill="#0066D9"/>
<path d="M41.0417 28.5418C42.3073 28.5418 43.3333 27.5158 43.3333 26.2502C43.3333 24.9845 42.3073 23.9585 41.0417 23.9585C39.776 23.9585 38.75 24.9845 38.75 26.2502C38.75 27.5158 39.776 28.5418 41.0417 28.5418Z" fill="#4285F4"/>
<path d="M41.0417 26.0418C42.3073 26.0418 43.3333 25.0158 43.3333 23.7502C43.3333 22.4845 42.3073 21.4585 41.0417 21.4585C39.776 21.4585 38.75 22.4845 38.75 23.7502C38.75 25.0158 39.776 26.0418 41.0417 26.0418Z" fill="#4285F4"/>
<path d="M38.75 26.25H43.3334V23.75H38.75V26.25Z" fill="#4285F4"/>
<path d="M16.8753 33.5418C18.141 33.5418 19.167 32.5158 19.167 31.2502C19.167 29.9845 18.141 28.9585 16.8753 28.9585C15.6097 28.9585 14.5837 29.9845 14.5837 31.2502C14.5837 32.5158 15.6097 33.5418 16.8753 33.5418Z" fill="#EA4335"/>
<path d="M16.8753 36.0418C18.141 36.0418 19.167 35.0158 19.167 33.7502C19.167 32.4845 18.141 31.4585 16.8753 31.4585C15.6097 31.4585 14.5837 32.4845 14.5837 33.7502C14.5837 35.0158 15.6097 36.0418 16.8753 36.0418Z" fill="#EA4335"/>
<path d="M19.167 31.25H14.5837V33.75H19.167V31.25Z" fill="#EA4335"/>
<path d="M16.8753 18.5416C18.141 18.5416 19.167 17.5156 19.167 16.2499C19.167 14.9843 18.141 13.9583 16.8753 13.9583C15.6097 13.9583 14.5837 14.9843 14.5837 16.2499C14.5837 17.5156 15.6097 18.5416 16.8753 18.5416Z" fill="#EA4335"/>
<path d="M16.8753 26.6668C18.141 26.6668 19.167 25.6408 19.167 24.3752C19.167 23.1095 18.141 22.0835 16.8753 22.0835C15.6097 22.0835 14.5837 23.1095 14.5837 24.3752C14.5837 25.6408 15.6097 26.6668 16.8753 26.6668Z" fill="#EA4335"/>
<path d="M19.167 16.25H14.5837V24.4271H19.167V16.25Z" fill="#EA4335"/>
<path d="M33.1247 21.0418C34.3903 21.0418 35.4163 20.0158 35.4163 18.7502C35.4163 17.4845 34.3903 16.4585 33.1247 16.4585C31.859 16.4585 30.833 17.4845 30.833 18.7502C30.833 20.0158 31.859 21.0418 33.1247 21.0418Z" fill="#34A853"/>
<path d="M33.1247 18.5416C34.3903 18.5416 35.4163 17.5156 35.4163 16.2499C35.4163 14.9843 34.3903 13.9583 33.1247 13.9583C31.859 13.9583 30.833 14.9843 30.833 16.2499C30.833 17.5156 31.859 18.5416 33.1247 18.5416Z" fill="#34A853"/>
<path d="M30.833 18.75H35.4164V16.25H30.833V18.75Z" fill="#34A853"/>
<path d="M25 13.7501C26.2657 13.7501 27.2917 12.7241 27.2917 11.4584C27.2917 10.1928 26.2657 9.16675 25 9.16675C23.7344 9.16675 22.7084 10.1928 22.7084 11.4584C22.7084 12.7241 23.7344 13.7501 25 13.7501Z" fill="#FAB908"/>
<path d="M25 11.2501C26.2657 11.2501 27.2917 10.2241 27.2917 8.95841C27.2917 7.69276 26.2657 6.66675 25 6.66675C23.7344 6.66675 22.7084 7.69276 22.7084 8.95841C22.7084 10.2241 23.7344 11.2501 25 11.2501Z" fill="#FAB908"/>
<path d="M22.7084 11.4585H27.2917V8.9585H22.7084V11.4585Z" fill="#FAB908"/>
<path d="M25 43.3333C26.2657 43.3333 27.2917 42.3073 27.2917 41.0417C27.2917 39.776 26.2657 38.75 25 38.75C23.7344 38.75 22.7084 39.776 22.7084 41.0417C22.7084 42.3073 23.7344 43.3333 25 43.3333Z" fill="#FAB908"/>
<path d="M25 40.8333C26.2657 40.8333 27.2917 39.8073 27.2917 38.5417C27.2917 37.276 26.2657 36.25 25 36.25C23.7344 36.25 22.7084 37.276 22.7084 38.5417C22.7084 39.8073 23.7344 40.8333 25 40.8333Z" fill="#FAB908"/>
<path d="M22.7084 41.0417H27.2917V38.5417H22.7084V41.0417Z" fill="#FAB908"/>
<path d="M33.1247 36.0418C34.3903 36.0418 35.4163 35.0158 35.4163 33.7502C35.4163 32.4845 34.3903 31.4585 33.1247 31.4585C31.859 31.4585 30.833 32.4845 30.833 33.7502C30.833 35.0158 31.859 36.0418 33.1247 36.0418Z" fill="#34A853"/>
<path d="M33.1247 27.9168C34.3903 27.9168 35.4163 26.8908 35.4163 25.6252C35.4163 24.3595 34.3903 23.3335 33.1247 23.3335C31.859 23.3335 30.833 24.3595 30.833 25.6252C30.833 26.8908 31.859 27.9168 33.1247 27.9168Z" fill="#34A853"/>
<path d="M30.833 33.7502H35.4164V25.6252H30.833V33.7502Z" fill="#34A853"/>
<path d="M25 20.6251C26.2657 20.6251 27.2917 19.5991 27.2917 18.3334C27.2917 17.0678 26.2657 16.0417 25 16.0417C23.7344 16.0417 22.7084 17.0678 22.7084 18.3334C22.7084 19.5991 23.7344 20.6251 25 20.6251Z" fill="#FAB908"/>
<path d="M25 33.9583C26.2657 33.9583 27.2917 32.9323 27.2917 31.6667C27.2917 30.401 26.2657 29.375 25 29.375C23.7344 29.375 22.7084 30.401 22.7084 31.6667C22.7084 32.9323 23.7344 33.9583 25 33.9583Z" fill="#FAB908"/>
<path d="M62.352 14.964H65.768V16H61.078V6.242H62.352V14.964ZM67.779 7.082C67.5363 7.082 67.331 6.998 67.163 6.83C66.995 6.662 66.911 6.45667 66.911 6.214C66.911 5.97133 66.995 5.766 67.163 5.598C67.331 5.43 67.5363 5.346 67.779 5.346C68.0123 5.346 68.2083 5.43 68.367 5.598C68.535 5.766 68.619 5.97133 68.619 6.214C68.619 6.45667 68.535 6.662 68.367 6.83C68.2083 6.998 68.0123 7.082 67.779 7.082ZM68.395 8.328V16H67.121V8.328H68.395ZM73.2823 16.126C72.6943 16.126 72.1669 16.028 71.7003 15.832C71.2336 15.6267 70.8649 15.3467 70.5943 14.992C70.3236 14.628 70.1743 14.2127 70.1463 13.746H71.4623C71.4996 14.1287 71.6769 14.4413 71.9943 14.684C72.3209 14.9267 72.7456 15.048 73.2683 15.048C73.7536 15.048 74.1363 14.9407 74.4163 14.726C74.6963 14.5113 74.8363 14.2407 74.8363 13.914C74.8363 13.578 74.6869 13.3307 74.3883 13.172C74.0896 13.004 73.6276 12.8407 73.0023 12.682C72.4329 12.5327 71.9663 12.3833 71.6023 12.234C71.2476 12.0753 70.9396 11.8467 70.6783 11.548C70.4263 11.24 70.3003 10.8387 70.3003 10.344C70.3003 9.952 70.4169 9.59267 70.6503 9.266C70.8836 8.93933 71.2149 8.68267 71.6443 8.496C72.0736 8.3 72.5636 8.202 73.1143 8.202C73.9636 8.202 74.6496 8.41667 75.1723 8.846C75.6949 9.27533 75.9749 9.86333 76.0123 10.61H74.7383C74.7103 10.2087 74.5469 9.88667 74.2483 9.644C73.9589 9.40133 73.5669 9.28 73.0723 9.28C72.6149 9.28 72.2509 9.378 71.9803 9.574C71.7096 9.77 71.5743 10.0267 71.5743 10.344C71.5743 10.596 71.6536 10.806 71.8123 10.974C71.9803 11.1327 72.1856 11.2633 72.4283 11.366C72.6803 11.4593 73.0256 11.5667 73.4643 11.688C74.0149 11.8373 74.4629 11.9867 74.8083 12.136C75.1536 12.276 75.4476 12.4907 75.6903 12.78C75.9423 13.0693 76.0729 13.4473 76.0823 13.914C76.0823 14.334 75.9656 14.712 75.7323 15.048C75.4989 15.384 75.1676 15.65 74.7383 15.846C74.3183 16.0327 73.8329 16.126 73.2823 16.126ZM79.4347 9.378V13.9C79.4347 14.2733 79.5141 14.5393 79.6727 14.698C79.8314 14.8473 80.1067 14.922 80.4987 14.922H81.4367V16H80.2887C79.5794 16 79.0474 15.8367 78.6927 15.51C78.3381 15.1833 78.1607 14.6467 78.1607 13.9V9.378H77.1667V8.328H78.1607V6.396H79.4347V8.328H81.4367V9.378H79.4347ZM89.9803 11.87C89.9803 12.1127 89.9663 12.3693 89.9383 12.64H83.8063C83.853 13.396 84.1097 13.9887 84.5763 14.418C85.0523 14.838 85.6263 15.048 86.2983 15.048C86.849 15.048 87.3063 14.922 87.6703 14.67C88.0437 14.4087 88.305 14.0633 88.4543 13.634H89.8263C89.621 14.3713 89.2103 14.9733 88.5943 15.44C87.9783 15.8973 87.213 16.126 86.2983 16.126C85.5703 16.126 84.917 15.9627 84.3383 15.636C83.769 15.3093 83.321 14.8473 82.9943 14.25C82.6677 13.6433 82.5043 12.9433 82.5043 12.15C82.5043 11.3567 82.663 10.6613 82.9803 10.064C83.2977 9.46667 83.741 9.00933 84.3103 8.692C84.889 8.36533 85.5517 8.202 86.2983 8.202C87.0263 8.202 87.6703 8.36067 88.2303 8.678C88.7903 8.99533 89.2197 9.434 89.5183 9.994C89.8263 10.5447 89.9803 11.17 89.9803 11.87ZM88.6643 11.604C88.6643 11.1187 88.557 10.7033 88.3423 10.358C88.1277 10.0033 87.8337 9.73733 87.4603 9.56C87.0963 9.37333 86.6903 9.28 86.2423 9.28C85.5983 9.28 85.0477 9.48533 84.5903 9.896C84.1423 10.3067 83.8857 10.876 83.8203 11.604H88.6643ZM95.4 8.188C96.3333 8.188 97.0893 8.47267 97.668 9.042C98.2467 9.602 98.536 10.414 98.536 11.478V16H97.276V11.66C97.276 10.8947 97.0847 10.3113 96.702 9.91C96.3193 9.49933 95.7967 9.294 95.134 9.294C94.462 9.294 93.9253 9.504 93.524 9.924C93.132 10.344 92.936 10.9553 92.936 11.758V16H91.662V8.328H92.936V9.42C93.188 9.028 93.5287 8.72467 93.958 8.51C94.3967 8.29533 94.8773 8.188 95.4 8.188ZM107.695 16.126C106.977 16.126 106.323 15.9627 105.735 15.636C105.157 15.3093 104.699 14.8473 104.363 14.25C104.037 13.6433 103.873 12.9433 103.873 12.15C103.873 11.366 104.041 10.6753 104.377 10.078C104.723 9.47133 105.189 9.00933 105.777 8.692C106.365 8.36533 107.023 8.202 107.751 8.202C108.479 8.202 109.137 8.36533 109.725 8.692C110.313 9.00933 110.775 9.46667 111.111 10.064C111.457 10.6613 111.629 11.3567 111.629 12.15C111.629 12.9433 111.452 13.6433 111.097 14.25C110.752 14.8473 110.281 15.3093 109.683 15.636C109.086 15.9627 108.423 16.126 107.695 16.126ZM107.695 15.006C108.153 15.006 108.582 14.8987 108.983 14.684C109.385 14.4693 109.707 14.1473 109.949 13.718C110.201 13.2887 110.327 12.766 110.327 12.15C110.327 11.534 110.206 11.0113 109.963 10.582C109.721 10.1527 109.403 9.83533 109.011 9.63C108.619 9.41533 108.195 9.308 107.737 9.308C107.271 9.308 106.841 9.41533 106.449 9.63C106.067 9.83533 105.759 10.1527 105.525 10.582C105.292 11.0113 105.175 11.534 105.175 12.15C105.175 12.7753 105.287 13.3027 105.511 13.732C105.745 14.1613 106.053 14.4833 106.435 14.698C106.818 14.9033 107.238 15.006 107.695 15.006ZM117.043 8.188C117.976 8.188 118.732 8.47267 119.311 9.042C119.889 9.602 120.179 10.414 120.179 11.478V16H118.919V11.66C118.919 10.8947 118.727 10.3113 118.345 9.91C117.962 9.49933 117.439 9.294 116.777 9.294C116.105 9.294 115.568 9.504 115.167 9.924C114.775 10.344 114.579 10.9553 114.579 11.758V16H113.305V8.328H114.579V9.42C114.831 9.028 115.171 8.72467 115.601 8.51C116.039 8.29533 116.52 8.188 117.043 8.188Z" fill="#1B2B41" fill-opacity="0.72"/>
<path d="M71.56 31.1C71.2 30.4067 70.7 29.8867 70.06 29.54C69.42 29.18 68.68 29 67.84 29C66.92 29 66.1 29.2067 65.38 29.62C64.66 30.0333 64.0933 30.62 63.68 31.38C63.28 32.14 63.08 33.02 63.08 34.02C63.08 35.02 63.28 35.9067 63.68 36.68C64.0933 37.44 64.66 38.0267 65.38 38.44C66.1 38.8533 66.92 39.06 67.84 39.06C69.08 39.06 70.0867 38.7133 70.86 38.02C71.6333 37.3267 72.1067 36.3867 72.28 35.2H67.06V33.38H74.72V35.16C74.5733 36.24 74.1867 37.2333 73.56 38.14C72.9467 39.0467 72.14 39.7733 71.14 40.32C70.1533 40.8533 69.0533 41.12 67.84 41.12C66.5333 41.12 65.34 40.82 64.26 40.22C63.18 39.6067 62.32 38.76 61.68 37.68C61.0533 36.6 60.74 35.38 60.74 34.02C60.74 32.66 61.0533 31.44 61.68 30.36C62.32 29.28 63.18 28.44 64.26 27.84C65.3533 27.2267 66.5467 26.92 67.84 26.92C69.32 26.92 70.6333 27.2867 71.78 28.02C72.94 28.74 73.78 29.7667 74.3 31.1H71.56ZM81.7488 41.18C80.7088 41.18 79.7688 40.9467 78.9288 40.48C78.0888 40 77.4288 39.3333 76.9488 38.48C76.4688 37.6133 76.2288 36.6133 76.2288 35.48C76.2288 34.36 76.4754 33.3667 76.9688 32.5C77.4621 31.6333 78.1354 30.9667 78.9888 30.5C79.8421 30.0333 80.7954 29.8 81.8488 29.8C82.9021 29.8 83.8554 30.0333 84.7088 30.5C85.5621 30.9667 86.2354 31.6333 86.7288 32.5C87.2221 33.3667 87.4688 34.36 87.4688 35.48C87.4688 36.6 87.2154 37.5933 86.7088 38.46C86.2021 39.3267 85.5088 40 84.6288 40.48C83.7621 40.9467 82.8021 41.18 81.7488 41.18ZM81.7488 39.2C82.3354 39.2 82.8821 39.06 83.3888 38.78C83.9088 38.5 84.3288 38.08 84.6488 37.52C84.9688 36.96 85.1288 36.28 85.1288 35.48C85.1288 34.68 84.9754 34.0067 84.6688 33.46C84.3621 32.9 83.9554 32.48 83.4488 32.2C82.9421 31.92 82.3954 31.78 81.8088 31.78C81.2221 31.78 80.6754 31.92 80.1688 32.2C79.6754 32.48 79.2821 32.9 78.9888 33.46C78.6954 34.0067 78.5488 34.68 78.5488 35.48C78.5488 36.6667 78.8488 37.5867 79.4488 38.24C80.0621 38.88 80.8288 39.2 81.7488 39.2ZM94.5027 41.18C93.4627 41.18 92.5227 40.9467 91.6827 40.48C90.8427 40 90.1827 39.3333 89.7027 38.48C89.2227 37.6133 88.9827 36.6133 88.9827 35.48C88.9827 34.36 89.2293 33.3667 89.7227 32.5C90.216 31.6333 90.8893 30.9667 91.7427 30.5C92.596 30.0333 93.5493 29.8 94.6027 29.8C95.656 29.8 96.6093 30.0333 97.4627 30.5C98.316 30.9667 98.9893 31.6333 99.4827 32.5C99.976 33.3667 100.223 34.36 100.223 35.48C100.223 36.6 99.9693 37.5933 99.4627 38.46C98.956 39.3267 98.2627 40 97.3827 40.48C96.516 40.9467 95.556 41.18 94.5027 41.18ZM94.5027 39.2C95.0893 39.2 95.636 39.06 96.1427 38.78C96.6627 38.5 97.0827 38.08 97.4027 37.52C97.7227 36.96 97.8827 36.28 97.8827 35.48C97.8827 34.68 97.7293 34.0067 97.4227 33.46C97.116 32.9 96.7093 32.48 96.2027 32.2C95.696 31.92 95.1493 31.78 94.5627 31.78C93.976 31.78 93.4293 31.92 92.9227 32.2C92.4293 32.48 92.036 32.9 91.7427 33.46C91.4493 34.0067 91.3027 34.68 91.3027 35.48C91.3027 36.6667 91.6027 37.5867 92.2027 38.24C92.816 38.88 93.5827 39.2 94.5027 39.2ZM106.917 29.8C107.77 29.8 108.523 29.9733 109.177 30.32C109.843 30.6533 110.363 31.0733 110.737 31.58V29.98H113.037V41.18C113.037 42.1933 112.823 43.0933 112.397 43.88C111.97 44.68 111.35 45.3067 110.537 45.76C109.737 46.2133 108.777 46.44 107.657 46.44C106.163 46.44 104.923 46.0867 103.937 45.38C102.95 44.6867 102.39 43.74 102.257 42.54H104.517C104.69 43.1133 105.057 43.5733 105.617 43.92C106.19 44.28 106.87 44.46 107.657 44.46C108.577 44.46 109.317 44.18 109.877 43.62C110.45 43.06 110.737 42.2467 110.737 41.18V39.34C110.35 39.86 109.823 40.3 109.157 40.66C108.503 41.0067 107.757 41.18 106.917 41.18C105.957 41.18 105.077 40.94 104.277 40.46C103.49 39.9667 102.863 39.2867 102.397 38.42C101.943 37.54 101.717 36.5467 101.717 35.44C101.717 34.3333 101.943 33.3533 102.397 32.5C102.863 31.6467 103.49 30.9867 104.277 30.52C105.077 30.04 105.957 29.8 106.917 29.8ZM110.737 35.48C110.737 34.72 110.577 34.06 110.257 33.5C109.95 32.94 109.543 32.5133 109.037 32.22C108.53 31.9267 107.983 31.78 107.397 31.78C106.81 31.78 106.263 31.9267 105.757 32.22C105.25 32.5 104.837 32.92 104.517 33.48C104.21 34.0267 104.057 34.68 104.057 35.44C104.057 36.2 104.21 36.8667 104.517 37.44C104.837 38.0133 105.25 38.4533 105.757 38.76C106.277 39.0533 106.823 39.2 107.397 39.2C107.983 39.2 108.53 39.0533 109.037 38.76C109.543 38.4667 109.95 38.04 110.257 37.48C110.577 36.9067 110.737 36.24 110.737 35.48ZM118.311 26.2V41H116.031V26.2H118.311ZM131.405 35.22C131.405 35.6333 131.378 36.0067 131.325 36.34H122.905C122.971 37.22 123.298 37.9267 123.885 38.46C124.471 38.9933 125.191 39.26 126.045 39.26C127.271 39.26 128.138 38.7467 128.645 37.72H131.105C130.771 38.7333 130.165 39.5667 129.285 40.22C128.418 40.86 127.338 41.18 126.045 41.18C124.991 41.18 124.045 40.9467 123.205 40.48C122.378 40 121.725 39.3333 121.245 38.48C120.778 37.6133 120.545 36.6133 120.545 35.48C120.545 34.3467 120.771 33.3533 121.225 32.5C121.691 31.6333 122.338 30.9667 123.165 30.5C124.005 30.0333 124.965 29.8 126.045 29.8C127.085 29.8 128.011 30.0267 128.825 30.48C129.638 30.9333 130.271 31.5733 130.725 32.4C131.178 33.2133 131.405 34.1533 131.405 35.22ZM129.025 34.5C129.011 33.66 128.711 32.9867 128.125 32.48C127.538 31.9733 126.811 31.72 125.945 31.72C125.158 31.72 124.485 31.9733 123.925 32.48C123.365 32.9733 123.031 33.6467 122.925 34.5H129.025ZM148.564 31.24C148.564 31.9467 148.397 32.6133 148.064 33.24C147.73 33.8667 147.197 34.38 146.464 34.78C145.73 35.1667 144.79 35.36 143.644 35.36H141.124V41H138.844V27.1H143.644C144.71 27.1 145.61 27.2867 146.344 27.66C147.09 28.02 147.644 28.5133 148.004 29.14C148.377 29.7667 148.564 30.4667 148.564 31.24ZM143.644 33.5C144.51 33.5 145.157 33.3067 145.584 32.92C146.01 32.52 146.224 31.96 146.224 31.24C146.224 29.72 145.364 28.96 143.644 28.96H141.124V33.5H143.644ZM155.518 41.18C154.478 41.18 153.538 40.9467 152.698 40.48C151.858 40 151.198 39.3333 150.718 38.48C150.238 37.6133 149.998 36.6133 149.998 35.48C149.998 34.36 150.245 33.3667 150.738 32.5C151.232 31.6333 151.905 30.9667 152.758 30.5C153.612 30.0333 154.565 29.8 155.618 29.8C156.672 29.8 157.625 30.0333 158.478 30.5C159.332 30.9667 160.005 31.6333 160.498 32.5C160.992 33.3667 161.238 34.36 161.238 35.48C161.238 36.6 160.985 37.5933 160.478 38.46C159.972 39.3267 159.278 40 158.398 40.48C157.532 40.9467 156.572 41.18 155.518 41.18ZM155.518 39.2C156.105 39.2 156.652 39.06 157.158 38.78C157.678 38.5 158.098 38.08 158.418 37.52C158.738 36.96 158.898 36.28 158.898 35.48C158.898 34.68 158.745 34.0067 158.438 33.46C158.132 32.9 157.725 32.48 157.218 32.2C156.712 31.92 156.165 31.78 155.578 31.78C154.992 31.78 154.445 31.92 153.938 32.2C153.445 32.48 153.052 32.9 152.758 33.46C152.465 34.0067 152.318 34.68 152.318 35.48C152.318 36.6667 152.618 37.5867 153.218 38.24C153.832 38.88 154.598 39.2 155.518 39.2ZM162.732 35.44C162.732 34.3333 162.959 33.3533 163.412 32.5C163.879 31.6467 164.506 30.9867 165.292 30.52C166.092 30.04 166.979 29.8 167.952 29.8C168.672 29.8 169.379 29.96 170.072 30.28C170.779 30.5867 171.339 31 171.752 31.52V26.2H174.052V41H171.752V39.34C171.379 39.8733 170.859 40.3133 170.192 40.66C169.539 41.0067 168.786 41.18 167.932 41.18C166.972 41.18 166.092 40.94 165.292 40.46C164.506 39.9667 163.879 39.2867 163.412 38.42C162.959 37.54 162.732 36.5467 162.732 35.44ZM171.752 35.48C171.752 34.72 171.592 34.06 171.272 33.5C170.966 32.94 170.559 32.5133 170.052 32.22C169.546 31.9267 168.999 31.78 168.412 31.78C167.826 31.78 167.279 31.9267 166.772 32.22C166.266 32.5 165.852 32.92 165.532 33.48C165.226 34.0267 165.072 34.68 165.072 35.44C165.072 36.2 165.226 36.8667 165.532 37.44C165.852 38.0133 166.266 38.4533 166.772 38.76C167.292 39.0533 167.839 39.2 168.412 39.2C168.999 39.2 169.546 39.0533 170.052 38.76C170.559 38.4667 170.966 38.04 171.272 37.48C171.592 36.9067 171.752 36.24 171.752 35.48ZM176.287 35.48C176.287 34.3467 176.514 33.3533 176.967 32.5C177.434 31.6333 178.074 30.9667 178.887 30.5C179.7 30.0333 180.634 29.8 181.687 29.8C183.02 29.8 184.12 30.12 184.987 30.76C185.867 31.3867 186.46 32.2867 186.767 33.46H184.307C184.107 32.9133 183.787 32.4867 183.347 32.18C182.907 31.8733 182.354 31.72 181.687 31.72C180.754 31.72 180.007 32.0533 179.447 32.72C178.9 33.3733 178.627 34.2933 178.627 35.48C178.627 36.6667 178.9 37.5933 179.447 38.26C180.007 38.9267 180.754 39.26 181.687 39.26C183.007 39.26 183.88 38.68 184.307 37.52H186.767C186.447 38.64 185.847 39.5333 184.967 40.2C184.087 40.8533 182.994 41.18 181.687 41.18C180.634 41.18 179.7 40.9467 178.887 40.48C178.074 40 177.434 39.3333 176.967 38.48C176.514 37.6133 176.287 36.6133 176.287 35.48ZM188.279 35.44C188.279 34.3333 188.506 33.3533 188.959 32.5C189.426 31.6467 190.052 30.9867 190.839 30.52C191.639 30.04 192.519 29.8 193.479 29.8C194.346 29.8 195.099 29.9733 195.739 30.32C196.392 30.6533 196.912 31.0733 197.299 31.58V29.98H199.599V41H197.299V39.36C196.912 39.88 196.386 40.3133 195.719 40.66C195.052 41.0067 194.292 41.18 193.439 41.18C192.492 41.18 191.626 40.94 190.839 40.46C190.052 39.9667 189.426 39.2867 188.959 38.42C188.506 37.54 188.279 36.5467 188.279 35.44ZM197.299 35.48C197.299 34.72 197.139 34.06 196.819 33.5C196.512 32.94 196.106 32.5133 195.599 32.22C195.092 31.9267 194.546 31.78 193.959 31.78C193.372 31.78 192.826 31.9267 192.319 32.22C191.812 32.5 191.399 32.92 191.079 33.48C190.772 34.0267 190.619 34.68 190.619 35.44C190.619 36.2 190.772 36.8667 191.079 37.44C191.399 38.0133 191.812 38.4533 192.319 38.76C192.839 39.0533 193.386 39.2 193.959 39.2C194.546 39.2 195.092 39.0533 195.599 38.76C196.106 38.4667 196.512 38.04 196.819 37.48C197.139 36.9067 197.299 36.24 197.299 35.48ZM206.594 41.18C205.727 41.18 204.947 41.0267 204.254 40.72C203.574 40.4 203.034 39.9733 202.634 39.44C202.234 38.8933 202.02 38.2867 201.994 37.62H204.354C204.394 38.0867 204.614 38.48 205.014 38.8C205.427 39.1067 205.94 39.26 206.554 39.26C207.194 39.26 207.687 39.14 208.034 38.9C208.394 38.6467 208.574 38.3267 208.574 37.94C208.574 37.5267 208.374 37.22 207.974 37.02C207.587 36.82 206.967 36.6 206.114 36.36C205.287 36.1333 204.614 35.9133 204.094 35.7C203.574 35.4867 203.12 35.16 202.734 34.72C202.36 34.28 202.174 33.7 202.174 32.98C202.174 32.3933 202.347 31.86 202.694 31.38C203.04 30.8867 203.534 30.5 204.174 30.22C204.827 29.94 205.574 29.8 206.414 29.8C207.667 29.8 208.674 30.12 209.434 30.76C210.207 31.3867 210.62 32.2467 210.674 33.34H208.394C208.354 32.8467 208.154 32.4533 207.794 32.16C207.434 31.8667 206.947 31.72 206.334 31.72C205.734 31.72 205.274 31.8333 204.954 32.06C204.634 32.2867 204.474 32.5867 204.474 32.96C204.474 33.2533 204.58 33.5 204.794 33.7C205.007 33.9 205.267 34.06 205.574 34.18C205.88 34.2867 206.334 34.4267 206.934 34.6C207.734 34.8133 208.387 35.0333 208.894 35.26C209.414 35.4733 209.86 35.7933 210.234 36.22C210.607 36.6467 210.8 37.2133 210.814 37.92C210.814 38.5467 210.64 39.1067 210.294 39.6C209.947 40.0933 209.454 40.48 208.814 40.76C208.187 41.04 207.447 41.18 206.594 41.18ZM215.937 31.84V37.94C215.937 38.3533 216.031 38.6533 216.217 38.84C216.417 39.0133 216.751 39.1 217.217 39.1H218.617V41H216.817C215.791 41 215.004 40.76 214.457 40.28C213.911 39.8 213.637 39.02 213.637 37.94V31.84H212.337V29.98H213.637V27.24H215.937V29.98H218.617V31.84H215.937Z" fill="#192434"/>
</svg>
