<svg width="61" height="40" viewBox="0 0 61 40" fill="none" xmlns="http://www.w3.org/2000/svg">
<path fill-rule="evenodd" clip-rule="evenodd" d="M10.0291 0C11.6769 0 13.2296 0.131687 14.6872 0.395062C16.1765 0.658437 17.4916 1.16873 18.6323 1.92593C19.7731 2.65021 20.6604 3.70371 21.2941 5.08642C21.9596 6.43621 22.2923 8.23045 22.2923 10.4691C22.2923 12.0823 22.0546 13.4486 21.5793 14.5679C21.1357 15.6543 20.4861 16.5267 19.6305 17.1852C18.8066 17.8436 17.8085 18.2881 16.636 18.5185C18.1253 18.716 19.377 19.2263 20.391 20.0494C21.405 20.8395 22.1655 21.9095 22.6725 23.2593C23.2112 24.609 23.4806 26.2387 23.4806 28.1481C23.4806 30.2222 23.2112 32.0165 22.6725 33.5309C22.1655 35.0123 21.4209 36.2304 20.4385 37.1852C19.4562 38.1399 18.2363 38.8477 16.7786 39.3086C15.3527 39.7695 13.7049 40 11.8353 40H34V34.0247H25.1116V22.0741H31.8136V15.9506H25.1116V6.02469H33.905V0H10.0291ZM10.3143 33.8271H8.50812V21.8272H10.2668C11.5026 21.8272 12.4849 22.0411 13.2137 22.4691C13.9426 22.8642 14.4654 23.5062 14.7823 24.3951C15.0992 25.2839 15.2576 26.4856 15.2576 28C15.2576 29.9095 14.8932 31.358 14.1644 32.3457C13.4672 33.3333 12.1839 33.8271 10.3143 33.8271ZM10.1717 16H8.50812V5.92592H9.9816C11.059 5.92592 11.9462 6.10699 12.6434 6.46914C13.3722 6.83127 13.9109 7.37448 14.2594 8.09876C14.6397 8.79012 14.8298 9.66255 14.8298 10.716C14.8298 11.8354 14.7031 12.7901 14.4496 13.5802C14.2278 14.3704 13.7841 14.9794 13.1187 15.4074C12.4532 15.8025 11.4709 16 10.1717 16Z" fill="black"/>
<path d="M0 0V40H3.0894V0H0Z" fill="#04CE78"/>
<path d="M49.2451 40C46.2385 40 43.8529 39.4718 42.0882 38.4154C40.3562 37.3269 39.1307 35.8223 38.4117 33.9016C37.6928 31.9488 37.3333 29.6599 37.3333 27.0348V13.0132C37.3333 10.3241 37.6928 8.01921 38.4117 6.09844C39.1307 4.14566 40.3562 2.64106 42.0882 1.58463C43.8529 0.528211 46.2385 0 49.2451 0C52.1863 0 54.4738 0.480193 56.1078 1.44058C57.7745 2.36895 58.951 3.68147 59.6372 5.37815C60.3235 7.07483 60.6666 9.02761 60.6666 11.2365V14.5978H52.0882V10.7083C52.0882 9.93998 52.0392 9.20368 51.9412 8.4994C51.8758 7.79512 51.647 7.21889 51.2549 6.77071C50.8627 6.29052 50.1928 6.05042 49.2451 6.05042C48.33 6.05042 47.6438 6.29052 47.1863 6.77071C46.7614 7.2509 46.4836 7.85914 46.3529 8.59544C46.2549 9.29972 46.2059 10.052 46.2059 10.8523V29.1477C46.2059 30.012 46.2712 30.8123 46.4019 31.5486C46.5653 32.2529 46.8595 32.8291 47.2843 33.2773C47.7418 33.6935 48.3954 33.9016 49.2451 33.9016C50.1601 33.9016 50.8137 33.6775 51.2059 33.2293C51.598 32.7491 51.8431 32.1409 51.9412 31.4046C52.0392 30.6683 52.0882 29.916 52.0882 29.1477V25.066H60.6666V28.4274C60.6666 30.6363 60.3235 32.621 59.6372 34.3818C58.9836 36.1104 57.8235 37.487 56.1568 38.5114C54.5229 39.5038 52.2189 40 49.2451 40Z" fill="black"/>
</svg>
