<svg width="257" height="162" viewBox="0 0 257 162" fill="none" xmlns="http://www.w3.org/2000/svg">
<path fill-rule="evenodd" clip-rule="evenodd" d="M61.1398 0.0015351C94.9095 0.0015351 122.29 27.3725 122.29 61.1437C122.29 109.073 89.3628 136.413 53.4985 160.615C49.4233 163.362 44.3608 158.77 46.7054 154.445C52.3331 144.041 56.2014 133.337 57.1525 122.154C25.2413 120.094 0 93.5678 0 61.1421C0 27.3725 27.3786 0 61.1421 0L61.1398 0.0015351Z" fill="#F8F8F8"/>
<path fill-rule="evenodd" clip-rule="evenodd" d="M195.436 0.0015351C229.199 0.0015351 256.578 27.3725 256.578 61.1437C256.578 109.073 223.659 136.413 187.794 160.615C183.719 163.362 178.656 158.77 180.995 154.445C186.623 144.041 190.497 133.337 191.442 122.154C159.538 120.094 134.29 93.5678 134.29 61.1421C134.29 27.3725 161.668 0 195.439 0L195.436 0.0015351Z" fill="#F8F8F8"/>
</svg>
