<svg width="181" height="50" viewBox="0 0 181 50" fill="none" xmlns="http://www.w3.org/2000/svg">
<path d="M3.33331 33.054C3.33331 33.5918 3.52826 33.9984 3.91809 34.274C4.30793 34.5496 4.72466 34.647 5.16827 34.5664C5.58498 34.4857 5.87738 34.3378 6.04546 34.1228C6.21347 33.9077 6.29752 33.5514 6.29752 33.054V27.2064C6.29752 26.7896 6.15303 26.4367 5.86398 26.1477C5.575 25.8587 5.22213 25.7142 4.80536 25.7142C4.40207 25.7142 4.05592 25.8587 3.76689 26.1477C3.47786 26.4367 3.33331 26.7896 3.33331 27.2064V33.054ZM7.97113 35.5544C7.97113 35.9443 8.10893 36.2367 8.38449 36.4316C8.66009 36.6266 9.013 36.724 9.44313 36.724C9.88674 36.724 10.2463 36.6265 10.5219 36.4316C10.7975 36.2367 10.9353 35.9443 10.9353 35.5544V21.9233C10.9353 21.52 10.7907 21.1738 10.5018 20.8848C10.2127 20.5959 9.85986 20.4513 9.44313 20.4513C9.03985 20.4513 8.69365 20.5959 8.40467 20.8848C8.11562 21.1739 7.97113 21.52 7.97113 21.9233V35.5544ZM12.5888 36.1997C12.5888 36.5896 12.7299 36.8819 13.0122 37.0769C13.2945 37.2718 13.6575 37.3693 14.1012 37.3693C14.5313 37.3693 14.8842 37.2718 15.1597 37.0769C15.4353 36.8819 15.5732 36.5896 15.5732 36.1997V23.7583C15.5732 23.3415 15.4286 22.9853 15.1396 22.6895C14.8506 22.3938 14.5044 22.246 14.1012 22.246C13.6844 22.246 13.3282 22.3938 13.0324 22.6895C12.7367 22.9853 12.5888 23.3415 12.5888 23.7583V36.1997H12.5888ZM17.2266 36.2602C17.2266 36.9996 17.724 37.3693 18.7188 37.3693C19.7135 37.3693 20.2109 36.9996 20.2109 36.2602V16.0958C20.2109 14.9666 19.8681 14.328 19.1825 14.1802C18.7389 14.0726 18.302 14.2003 17.8718 14.5633C17.4416 14.9262 17.2265 15.4371 17.2265 16.0958V36.2602H17.2266ZM21.9451 36.845V14.9061C21.9451 14.2071 22.1535 13.7903 22.5702 13.6559C23.4708 13.4408 24.3648 13.3333 25.2521 13.3333C27.3088 13.3333 29.2245 13.8172 30.9989 14.7851C32.7734 15.753 34.2084 17.0738 35.304 18.7474C36.3996 20.4211 37.0348 22.2661 37.2095 24.2826C38.0295 23.933 38.9033 23.7583 39.8309 23.7583C41.7129 23.7583 43.3227 24.4237 44.6602 25.7546C45.9978 27.0855 46.6666 28.6852 46.6666 30.5537C46.6666 32.4358 45.9978 34.0422 44.6602 35.373C43.3227 36.7039 41.7196 37.3693 39.851 37.3693L22.308 37.3492C22.187 37.3088 22.0962 37.2349 22.0357 37.1273C21.9752 37.0198 21.9451 36.9256 21.9451 36.845Z" fill="url(#paint0_linear_73_476)"/>
<path d="M62.352 14.964H65.768V16H61.078V6.242H62.352V14.964ZM67.779 7.082C67.5363 7.082 67.331 6.998 67.163 6.83C66.995 6.662 66.911 6.45667 66.911 6.214C66.911 5.97133 66.995 5.766 67.163 5.598C67.331 5.43 67.5363 5.346 67.779 5.346C68.0123 5.346 68.2083 5.43 68.367 5.598C68.535 5.766 68.619 5.97133 68.619 6.214C68.619 6.45667 68.535 6.662 68.367 6.83C68.2083 6.998 68.0123 7.082 67.779 7.082ZM68.395 8.328V16H67.121V8.328H68.395ZM73.2823 16.126C72.6943 16.126 72.1669 16.028 71.7003 15.832C71.2336 15.6267 70.8649 15.3467 70.5943 14.992C70.3236 14.628 70.1743 14.2127 70.1463 13.746H71.4623C71.4996 14.1287 71.6769 14.4413 71.9943 14.684C72.3209 14.9267 72.7456 15.048 73.2683 15.048C73.7536 15.048 74.1363 14.9407 74.4163 14.726C74.6963 14.5113 74.8363 14.2407 74.8363 13.914C74.8363 13.578 74.6869 13.3307 74.3883 13.172C74.0896 13.004 73.6276 12.8407 73.0023 12.682C72.4329 12.5327 71.9663 12.3833 71.6023 12.234C71.2476 12.0753 70.9396 11.8467 70.6783 11.548C70.4263 11.24 70.3003 10.8387 70.3003 10.344C70.3003 9.952 70.4169 9.59267 70.6503 9.266C70.8836 8.93933 71.2149 8.68267 71.6443 8.496C72.0736 8.3 72.5636 8.202 73.1143 8.202C73.9636 8.202 74.6496 8.41667 75.1723 8.846C75.6949 9.27533 75.9749 9.86333 76.0123 10.61H74.7383C74.7103 10.2087 74.5469 9.88667 74.2483 9.644C73.9589 9.40133 73.5669 9.28 73.0723 9.28C72.6149 9.28 72.2509 9.378 71.9803 9.574C71.7096 9.77 71.5743 10.0267 71.5743 10.344C71.5743 10.596 71.6536 10.806 71.8123 10.974C71.9803 11.1327 72.1856 11.2633 72.4283 11.366C72.6803 11.4593 73.0256 11.5667 73.4643 11.688C74.0149 11.8373 74.4629 11.9867 74.8083 12.136C75.1536 12.276 75.4476 12.4907 75.6903 12.78C75.9423 13.0693 76.0729 13.4473 76.0823 13.914C76.0823 14.334 75.9656 14.712 75.7323 15.048C75.4989 15.384 75.1676 15.65 74.7383 15.846C74.3183 16.0327 73.8329 16.126 73.2823 16.126ZM79.4347 9.378V13.9C79.4347 14.2733 79.5141 14.5393 79.6727 14.698C79.8314 14.8473 80.1067 14.922 80.4987 14.922H81.4367V16H80.2887C79.5794 16 79.0474 15.8367 78.6927 15.51C78.3381 15.1833 78.1607 14.6467 78.1607 13.9V9.378H77.1667V8.328H78.1607V6.396H79.4347V8.328H81.4367V9.378H79.4347ZM89.9803 11.87C89.9803 12.1127 89.9663 12.3693 89.9383 12.64H83.8063C83.853 13.396 84.1097 13.9887 84.5763 14.418C85.0523 14.838 85.6263 15.048 86.2983 15.048C86.849 15.048 87.3063 14.922 87.6703 14.67C88.0437 14.4087 88.305 14.0633 88.4543 13.634H89.8263C89.621 14.3713 89.2103 14.9733 88.5943 15.44C87.9783 15.8973 87.213 16.126 86.2983 16.126C85.5703 16.126 84.917 15.9627 84.3383 15.636C83.769 15.3093 83.321 14.8473 82.9943 14.25C82.6677 13.6433 82.5043 12.9433 82.5043 12.15C82.5043 11.3567 82.663 10.6613 82.9803 10.064C83.2977 9.46667 83.741 9.00933 84.3103 8.692C84.889 8.36533 85.5517 8.202 86.2983 8.202C87.0263 8.202 87.6703 8.36067 88.2303 8.678C88.7903 8.99533 89.2197 9.434 89.5183 9.994C89.8263 10.5447 89.9803 11.17 89.9803 11.87ZM88.6643 11.604C88.6643 11.1187 88.557 10.7033 88.3423 10.358C88.1277 10.0033 87.8337 9.73733 87.4603 9.56C87.0963 9.37333 86.6903 9.28 86.2423 9.28C85.5983 9.28 85.0477 9.48533 84.5903 9.896C84.1423 10.3067 83.8857 10.876 83.8203 11.604H88.6643ZM95.4 8.188C96.3333 8.188 97.0893 8.47267 97.668 9.042C98.2467 9.602 98.536 10.414 98.536 11.478V16H97.276V11.66C97.276 10.8947 97.0847 10.3113 96.702 9.91C96.3193 9.49933 95.7967 9.294 95.134 9.294C94.462 9.294 93.9253 9.504 93.524 9.924C93.132 10.344 92.936 10.9553 92.936 11.758V16H91.662V8.328H92.936V9.42C93.188 9.028 93.5287 8.72467 93.958 8.51C94.3967 8.29533 94.8773 8.188 95.4 8.188ZM107.695 16.126C106.977 16.126 106.323 15.9627 105.735 15.636C105.157 15.3093 104.699 14.8473 104.363 14.25C104.037 13.6433 103.873 12.9433 103.873 12.15C103.873 11.366 104.041 10.6753 104.377 10.078C104.723 9.47133 105.189 9.00933 105.777 8.692C106.365 8.36533 107.023 8.202 107.751 8.202C108.479 8.202 109.137 8.36533 109.725 8.692C110.313 9.00933 110.775 9.46667 111.111 10.064C111.457 10.6613 111.629 11.3567 111.629 12.15C111.629 12.9433 111.452 13.6433 111.097 14.25C110.752 14.8473 110.281 15.3093 109.683 15.636C109.086 15.9627 108.423 16.126 107.695 16.126ZM107.695 15.006C108.153 15.006 108.582 14.8987 108.983 14.684C109.385 14.4693 109.707 14.1473 109.949 13.718C110.201 13.2887 110.327 12.766 110.327 12.15C110.327 11.534 110.206 11.0113 109.963 10.582C109.721 10.1527 109.403 9.83533 109.011 9.63C108.619 9.41533 108.195 9.308 107.737 9.308C107.271 9.308 106.841 9.41533 106.449 9.63C106.067 9.83533 105.759 10.1527 105.525 10.582C105.292 11.0113 105.175 11.534 105.175 12.15C105.175 12.7753 105.287 13.3027 105.511 13.732C105.745 14.1613 106.053 14.4833 106.435 14.698C106.818 14.9033 107.238 15.006 107.695 15.006ZM117.043 8.188C117.976 8.188 118.732 8.47267 119.311 9.042C119.889 9.602 120.179 10.414 120.179 11.478V16H118.919V11.66C118.919 10.8947 118.727 10.3113 118.345 9.91C117.962 9.49933 117.439 9.294 116.777 9.294C116.105 9.294 115.568 9.504 115.167 9.924C114.775 10.344 114.579 10.9553 114.579 11.758V16H113.305V8.328H114.579V9.42C114.831 9.028 115.171 8.72467 115.601 8.51C116.039 8.29533 116.52 8.188 117.043 8.188Z" fill="#1B2B41" fill-opacity="0.72"/>
<path d="M66.08 41.14C65.1467 41.14 64.3067 40.98 63.56 40.66C62.8133 40.3267 62.2267 39.86 61.8 39.26C61.3733 38.66 61.16 37.96 61.16 37.16H63.6C63.6533 37.76 63.8867 38.2533 64.3 38.64C64.7267 39.0267 65.32 39.22 66.08 39.22C66.8667 39.22 67.48 39.0333 67.92 38.66C68.36 38.2733 68.58 37.78 68.58 37.18C68.58 36.7133 68.44 36.3333 68.16 36.04C67.8933 35.7467 67.5533 35.52 67.14 35.36C66.74 35.2 66.18 35.0267 65.46 34.84C64.5533 34.6 63.8133 34.36 63.24 34.12C62.68 33.8667 62.2 33.48 61.8 32.96C61.4 32.44 61.2 31.7467 61.2 30.88C61.2 30.08 61.4 29.38 61.8 28.78C62.2 28.18 62.76 27.72 63.48 27.4C64.2 27.08 65.0333 26.92 65.98 26.92C67.3267 26.92 68.4267 27.26 69.28 27.94C70.1467 28.6067 70.6267 29.5267 70.72 30.7H68.2C68.16 30.1933 67.92 29.76 67.48 29.4C67.04 29.04 66.46 28.86 65.74 28.86C65.0867 28.86 64.5533 29.0267 64.14 29.36C63.7267 29.6933 63.52 30.1733 63.52 30.8C63.52 31.2267 63.6467 31.58 63.9 31.86C64.1667 32.1267 64.5 32.34 64.9 32.5C65.3 32.66 65.8467 32.8333 66.54 33.02C67.46 33.2733 68.2067 33.5267 68.78 33.78C69.3667 34.0333 69.86 34.4267 70.26 34.96C70.6733 35.48 70.88 36.18 70.88 37.06C70.88 37.7667 70.6867 38.4333 70.3 39.06C69.9267 39.6867 69.3733 40.1933 68.64 40.58C67.92 40.9533 67.0667 41.14 66.08 41.14ZM78.3503 41.18C77.3103 41.18 76.3703 40.9467 75.5303 40.48C74.6903 40 74.0303 39.3333 73.5503 38.48C73.0703 37.6133 72.8303 36.6133 72.8303 35.48C72.8303 34.36 73.077 33.3667 73.5703 32.5C74.0636 31.6333 74.737 30.9667 75.5903 30.5C76.4436 30.0333 77.397 29.8 78.4503 29.8C79.5036 29.8 80.457 30.0333 81.3103 30.5C82.1636 30.9667 82.837 31.6333 83.3303 32.5C83.8236 33.3667 84.0703 34.36 84.0703 35.48C84.0703 36.6 83.817 37.5933 83.3103 38.46C82.8036 39.3267 82.1103 40 81.2303 40.48C80.3636 40.9467 79.4036 41.18 78.3503 41.18ZM78.3503 39.2C78.937 39.2 79.4836 39.06 79.9903 38.78C80.5103 38.5 80.9303 38.08 81.2503 37.52C81.5703 36.96 81.7303 36.28 81.7303 35.48C81.7303 34.68 81.577 34.0067 81.2703 33.46C80.9636 32.9 80.557 32.48 80.0503 32.2C79.5436 31.92 78.997 31.78 78.4103 31.78C77.8236 31.78 77.277 31.92 76.7703 32.2C76.277 32.48 75.8836 32.9 75.5903 33.46C75.297 34.0067 75.1503 34.68 75.1503 35.48C75.1503 36.6667 75.4503 37.5867 76.0503 38.24C76.6636 38.88 77.4303 39.2 78.3503 39.2ZM96.3042 29.98V41H94.0242V39.7C93.6642 40.1533 93.1909 40.5133 92.6042 40.78C92.0309 41.0333 91.4176 41.16 90.7642 41.16C89.8976 41.16 89.1176 40.98 88.4242 40.62C87.7442 40.26 87.2042 39.7267 86.8042 39.02C86.4176 38.3133 86.2242 37.46 86.2242 36.46V29.98H88.4842V36.12C88.4842 37.1067 88.7309 37.8667 89.2242 38.4C89.7176 38.92 90.3909 39.18 91.2442 39.18C92.0976 39.18 92.7709 38.92 93.2642 38.4C93.7709 37.8667 94.0242 37.1067 94.0242 36.12V29.98H96.3042ZM104.873 29.8C105.739 29.8 106.513 29.98 107.193 30.34C107.886 30.7 108.426 31.2333 108.813 31.94C109.199 32.6467 109.393 33.5 109.393 34.5V41H107.133V34.84C107.133 33.8533 106.886 33.1 106.393 32.58C105.899 32.0467 105.226 31.78 104.373 31.78C103.519 31.78 102.839 32.0467 102.333 32.58C101.839 33.1 101.593 33.8533 101.593 34.84V41H99.3125V29.98H101.593V31.24C101.966 30.7867 102.439 30.4333 103.013 30.18C103.599 29.9267 104.219 29.8 104.873 29.8ZM111.541 35.44C111.541 34.3333 111.767 33.3533 112.221 32.5C112.687 31.6467 113.314 30.9867 114.101 30.52C114.901 30.04 115.787 29.8 116.761 29.8C117.481 29.8 118.187 29.96 118.881 30.28C119.587 30.5867 120.147 31 120.561 31.52V26.2H122.861V41H120.561V39.34C120.187 39.8733 119.667 40.3133 119.001 40.66C118.347 41.0067 117.594 41.18 116.741 41.18C115.781 41.18 114.901 40.94 114.101 40.46C113.314 39.9667 112.687 39.2867 112.221 38.42C111.767 37.54 111.541 36.5467 111.541 35.44ZM120.561 35.48C120.561 34.72 120.401 34.06 120.081 33.5C119.774 32.94 119.367 32.5133 118.861 32.22C118.354 31.9267 117.807 31.78 117.221 31.78C116.634 31.78 116.087 31.9267 115.581 32.22C115.074 32.5 114.661 32.92 114.341 33.48C114.034 34.0267 113.881 34.68 113.881 35.44C113.881 36.2 114.034 36.8667 114.341 37.44C114.661 38.0133 115.074 38.4533 115.581 38.76C116.101 39.0533 116.647 39.2 117.221 39.2C117.807 39.2 118.354 39.0533 118.861 38.76C119.367 38.4667 119.774 38.04 120.081 37.48C120.401 36.9067 120.561 36.24 120.561 35.48ZM125.095 35.48C125.095 34.3467 125.322 33.3533 125.775 32.5C126.242 31.6333 126.882 30.9667 127.695 30.5C128.509 30.0333 129.442 29.8 130.495 29.8C131.829 29.8 132.929 30.12 133.795 30.76C134.675 31.3867 135.269 32.2867 135.575 33.46H133.115C132.915 32.9133 132.595 32.4867 132.155 32.18C131.715 31.8733 131.162 31.72 130.495 31.72C129.562 31.72 128.815 32.0533 128.255 32.72C127.709 33.3733 127.435 34.2933 127.435 35.48C127.435 36.6667 127.709 37.5933 128.255 38.26C128.815 38.9267 129.562 39.26 130.495 39.26C131.815 39.26 132.689 38.68 133.115 37.52H135.575C135.255 38.64 134.655 39.5333 133.775 40.2C132.895 40.8533 131.802 41.18 130.495 41.18C129.442 41.18 128.509 40.9467 127.695 40.48C126.882 40 126.242 39.3333 125.775 38.48C125.322 37.6133 125.095 36.6133 125.095 35.48ZM140.128 26.2V41H137.848V26.2H140.128ZM147.901 41.18C146.861 41.18 145.921 40.9467 145.081 40.48C144.241 40 143.581 39.3333 143.101 38.48C142.621 37.6133 142.381 36.6133 142.381 35.48C142.381 34.36 142.628 33.3667 143.121 32.5C143.614 31.6333 144.288 30.9667 145.141 30.5C145.994 30.0333 146.948 29.8 148.001 29.8C149.054 29.8 150.008 30.0333 150.861 30.5C151.714 30.9667 152.388 31.6333 152.881 32.5C153.374 33.3667 153.621 34.36 153.621 35.48C153.621 36.6 153.368 37.5933 152.861 38.46C152.354 39.3267 151.661 40 150.781 40.48C149.914 40.9467 148.954 41.18 147.901 41.18ZM147.901 39.2C148.488 39.2 149.034 39.06 149.541 38.78C150.061 38.5 150.481 38.08 150.801 37.52C151.121 36.96 151.281 36.28 151.281 35.48C151.281 34.68 151.128 34.0067 150.821 33.46C150.514 32.9 150.108 32.48 149.601 32.2C149.094 31.92 148.548 31.78 147.961 31.78C147.374 31.78 146.828 31.92 146.321 32.2C145.828 32.48 145.434 32.9 145.141 33.46C144.848 34.0067 144.701 34.68 144.701 35.48C144.701 36.6667 145.001 37.5867 145.601 38.24C146.214 38.88 146.981 39.2 147.901 39.2ZM165.855 29.98V41H163.575V39.7C163.215 40.1533 162.742 40.5133 162.155 40.78C161.582 41.0333 160.968 41.16 160.315 41.16C159.448 41.16 158.668 40.98 157.975 40.62C157.295 40.26 156.755 39.7267 156.355 39.02C155.968 38.3133 155.775 37.46 155.775 36.46V29.98H158.035V36.12C158.035 37.1067 158.282 37.8667 158.775 38.4C159.268 38.92 159.942 39.18 160.795 39.18C161.648 39.18 162.322 38.92 162.815 38.4C163.322 37.8667 163.575 37.1067 163.575 36.12V29.98H165.855ZM168.103 35.44C168.103 34.3333 168.33 33.3533 168.783 32.5C169.25 31.6467 169.877 30.9867 170.663 30.52C171.463 30.04 172.35 29.8 173.323 29.8C174.043 29.8 174.75 29.96 175.443 30.28C176.15 30.5867 176.71 31 177.123 31.52V26.2H179.423V41H177.123V39.34C176.75 39.8733 176.23 40.3133 175.563 40.66C174.91 41.0067 174.157 41.18 173.303 41.18C172.343 41.18 171.463 40.94 170.663 40.46C169.877 39.9667 169.25 39.2867 168.783 38.42C168.33 37.54 168.103 36.5467 168.103 35.44ZM177.123 35.48C177.123 34.72 176.963 34.06 176.643 33.5C176.337 32.94 175.93 32.5133 175.423 32.22C174.917 31.9267 174.37 31.78 173.783 31.78C173.197 31.78 172.65 31.9267 172.143 32.22C171.637 32.5 171.223 32.92 170.903 33.48C170.597 34.0267 170.443 34.68 170.443 35.44C170.443 36.2 170.597 36.8667 170.903 37.44C171.223 38.0133 171.637 38.4533 172.143 38.76C172.663 39.0533 173.21 39.2 173.783 39.2C174.37 39.2 174.917 39.0533 175.423 38.76C175.93 38.4667 176.337 38.04 176.643 37.48C176.963 36.9067 177.123 36.24 177.123 35.48Z" fill="#192434"/>
<defs>
<linearGradient id="paint0_linear_73_476" x1="25.0463" y1="13.9873" x2="25.0463" y2="36.8896" gradientUnits="userSpaceOnUse">
<stop stop-color="#FF8800"/>
<stop offset="1" stop-color="#FF3300"/>
</linearGradient>
</defs>
</svg>
