<svg width="130" height="50" viewBox="0 0 130 50" fill="none" xmlns="http://www.w3.org/2000/svg">
<path fill-rule="evenodd" clip-rule="evenodd" d="M35.8448 22.9197C29.9352 19.4101 20.1874 19.0874 14.546 20.7996C13.6398 21.0746 12.6818 20.5632 12.4073 19.6572C12.1328 18.7507 12.6437 17.7933 13.5503 17.5179C20.0263 15.5522 30.7919 15.9318 37.5951 19.9703C38.41 20.4541 38.6773 21.5065 38.1943 22.32C37.711 23.1349 36.6577 23.4035 35.8448 22.9197ZM35.6513 28.1178C35.2367 28.7905 34.357 29.0016 33.6852 28.5885C28.7583 25.5601 21.2455 24.6826 15.4166 26.452C14.6607 26.6803 13.8625 26.2543 13.6328 25.4997C13.4052 24.7439 13.8314 23.9471 14.586 23.7172C21.2446 21.6965 29.5223 22.6751 35.1811 26.1527C35.8529 26.5665 36.0644 27.4466 35.6513 28.1178ZM33.408 33.1099C33.0785 33.6502 32.3751 33.8194 31.8368 33.4902C27.5317 30.8589 22.1129 30.2648 15.7312 31.7224C15.1163 31.8633 14.5033 31.478 14.363 30.8631C14.2222 30.2483 14.6062 29.6354 15.2224 29.495C22.2061 27.8986 28.1965 28.5856 33.0288 31.5385C33.5676 31.8675 33.7373 32.5713 33.408 33.1099ZM25 6.66675C14.875 6.66675 6.66669 14.8749 6.66669 24.9999C6.66669 35.126 14.875 43.3334 25 43.3334C35.1255 43.3334 43.3334 35.126 43.3334 24.9999C43.3334 14.8749 35.1255 6.66675 25 6.66675Z" fill="#1ED760"/>
<path d="M62.352 14.964H65.768V16H61.078V6.242H62.352V14.964ZM67.779 7.082C67.5363 7.082 67.331 6.998 67.163 6.83C66.995 6.662 66.911 6.45667 66.911 6.214C66.911 5.97133 66.995 5.766 67.163 5.598C67.331 5.43 67.5363 5.346 67.779 5.346C68.0123 5.346 68.2083 5.43 68.367 5.598C68.535 5.766 68.619 5.97133 68.619 6.214C68.619 6.45667 68.535 6.662 68.367 6.83C68.2083 6.998 68.0123 7.082 67.779 7.082ZM68.395 8.328V16H67.121V8.328H68.395ZM73.2823 16.126C72.6943 16.126 72.1669 16.028 71.7003 15.832C71.2336 15.6267 70.8649 15.3467 70.5943 14.992C70.3236 14.628 70.1743 14.2127 70.1463 13.746H71.4623C71.4996 14.1287 71.6769 14.4413 71.9943 14.684C72.3209 14.9267 72.7456 15.048 73.2683 15.048C73.7536 15.048 74.1363 14.9407 74.4163 14.726C74.6963 14.5113 74.8363 14.2407 74.8363 13.914C74.8363 13.578 74.6869 13.3307 74.3883 13.172C74.0896 13.004 73.6276 12.8407 73.0023 12.682C72.4329 12.5327 71.9663 12.3833 71.6023 12.234C71.2476 12.0753 70.9396 11.8467 70.6783 11.548C70.4263 11.24 70.3003 10.8387 70.3003 10.344C70.3003 9.952 70.4169 9.59267 70.6503 9.266C70.8836 8.93933 71.2149 8.68267 71.6443 8.496C72.0736 8.3 72.5636 8.202 73.1143 8.202C73.9636 8.202 74.6496 8.41667 75.1723 8.846C75.6949 9.27533 75.9749 9.86333 76.0123 10.61H74.7383C74.7103 10.2087 74.5469 9.88667 74.2483 9.644C73.9589 9.40133 73.5669 9.28 73.0723 9.28C72.6149 9.28 72.2509 9.378 71.9803 9.574C71.7096 9.77 71.5743 10.0267 71.5743 10.344C71.5743 10.596 71.6536 10.806 71.8123 10.974C71.9803 11.1327 72.1856 11.2633 72.4283 11.366C72.6803 11.4593 73.0256 11.5667 73.4643 11.688C74.0149 11.8373 74.4629 11.9867 74.8083 12.136C75.1536 12.276 75.4476 12.4907 75.6903 12.78C75.9423 13.0693 76.0729 13.4473 76.0823 13.914C76.0823 14.334 75.9656 14.712 75.7323 15.048C75.4989 15.384 75.1676 15.65 74.7383 15.846C74.3183 16.0327 73.8329 16.126 73.2823 16.126ZM79.4347 9.378V13.9C79.4347 14.2733 79.5141 14.5393 79.6727 14.698C79.8314 14.8473 80.1067 14.922 80.4987 14.922H81.4367V16H80.2887C79.5794 16 79.0474 15.8367 78.6927 15.51C78.3381 15.1833 78.1607 14.6467 78.1607 13.9V9.378H77.1667V8.328H78.1607V6.396H79.4347V8.328H81.4367V9.378H79.4347ZM89.9803 11.87C89.9803 12.1127 89.9663 12.3693 89.9383 12.64H83.8063C83.853 13.396 84.1097 13.9887 84.5763 14.418C85.0523 14.838 85.6263 15.048 86.2983 15.048C86.849 15.048 87.3063 14.922 87.6703 14.67C88.0437 14.4087 88.305 14.0633 88.4543 13.634H89.8263C89.621 14.3713 89.2103 14.9733 88.5943 15.44C87.9783 15.8973 87.213 16.126 86.2983 16.126C85.5703 16.126 84.917 15.9627 84.3383 15.636C83.769 15.3093 83.321 14.8473 82.9943 14.25C82.6677 13.6433 82.5043 12.9433 82.5043 12.15C82.5043 11.3567 82.663 10.6613 82.9803 10.064C83.2977 9.46667 83.741 9.00933 84.3103 8.692C84.889 8.36533 85.5517 8.202 86.2983 8.202C87.0263 8.202 87.6703 8.36067 88.2303 8.678C88.7903 8.99533 89.2197 9.434 89.5183 9.994C89.8263 10.5447 89.9803 11.17 89.9803 11.87ZM88.6643 11.604C88.6643 11.1187 88.557 10.7033 88.3423 10.358C88.1277 10.0033 87.8337 9.73733 87.4603 9.56C87.0963 9.37333 86.6903 9.28 86.2423 9.28C85.5983 9.28 85.0477 9.48533 84.5903 9.896C84.1423 10.3067 83.8857 10.876 83.8203 11.604H88.6643ZM95.4 8.188C96.3333 8.188 97.0893 8.47267 97.668 9.042C98.2467 9.602 98.536 10.414 98.536 11.478V16H97.276V11.66C97.276 10.8947 97.0847 10.3113 96.702 9.91C96.3193 9.49933 95.7967 9.294 95.134 9.294C94.462 9.294 93.9253 9.504 93.524 9.924C93.132 10.344 92.936 10.9553 92.936 11.758V16H91.662V8.328H92.936V9.42C93.188 9.028 93.5287 8.72467 93.958 8.51C94.3967 8.29533 94.8773 8.188 95.4 8.188ZM107.695 16.126C106.977 16.126 106.323 15.9627 105.735 15.636C105.157 15.3093 104.699 14.8473 104.363 14.25C104.037 13.6433 103.873 12.9433 103.873 12.15C103.873 11.366 104.041 10.6753 104.377 10.078C104.723 9.47133 105.189 9.00933 105.777 8.692C106.365 8.36533 107.023 8.202 107.751 8.202C108.479 8.202 109.137 8.36533 109.725 8.692C110.313 9.00933 110.775 9.46667 111.111 10.064C111.457 10.6613 111.629 11.3567 111.629 12.15C111.629 12.9433 111.452 13.6433 111.097 14.25C110.752 14.8473 110.281 15.3093 109.683 15.636C109.086 15.9627 108.423 16.126 107.695 16.126ZM107.695 15.006C108.153 15.006 108.582 14.8987 108.983 14.684C109.385 14.4693 109.707 14.1473 109.949 13.718C110.201 13.2887 110.327 12.766 110.327 12.15C110.327 11.534 110.206 11.0113 109.963 10.582C109.721 10.1527 109.403 9.83533 109.011 9.63C108.619 9.41533 108.195 9.308 107.737 9.308C107.271 9.308 106.841 9.41533 106.449 9.63C106.067 9.83533 105.759 10.1527 105.525 10.582C105.292 11.0113 105.175 11.534 105.175 12.15C105.175 12.7753 105.287 13.3027 105.511 13.732C105.745 14.1613 106.053 14.4833 106.435 14.698C106.818 14.9033 107.238 15.006 107.695 15.006ZM117.043 8.188C117.976 8.188 118.732 8.47267 119.311 9.042C119.889 9.602 120.179 10.414 120.179 11.478V16H118.919V11.66C118.919 10.8947 118.727 10.3113 118.345 9.91C117.962 9.49933 117.439 9.294 116.777 9.294C116.105 9.294 115.568 9.504 115.167 9.924C114.775 10.344 114.579 10.9553 114.579 11.758V16H113.305V8.328H114.579V9.42C114.831 9.028 115.171 8.72467 115.601 8.51C116.039 8.29533 116.52 8.188 117.043 8.188Z" fill="#1B2B41" fill-opacity="0.72"/>
<path d="M66.08 41.14C65.1467 41.14 64.3067 40.98 63.56 40.66C62.8133 40.3267 62.2267 39.86 61.8 39.26C61.3733 38.66 61.16 37.96 61.16 37.16H63.6C63.6533 37.76 63.8867 38.2533 64.3 38.64C64.7267 39.0267 65.32 39.22 66.08 39.22C66.8667 39.22 67.48 39.0333 67.92 38.66C68.36 38.2733 68.58 37.78 68.58 37.18C68.58 36.7133 68.44 36.3333 68.16 36.04C67.8933 35.7467 67.5533 35.52 67.14 35.36C66.74 35.2 66.18 35.0267 65.46 34.84C64.5533 34.6 63.8133 34.36 63.24 34.12C62.68 33.8667 62.2 33.48 61.8 32.96C61.4 32.44 61.2 31.7467 61.2 30.88C61.2 30.08 61.4 29.38 61.8 28.78C62.2 28.18 62.76 27.72 63.48 27.4C64.2 27.08 65.0333 26.92 65.98 26.92C67.3267 26.92 68.4267 27.26 69.28 27.94C70.1467 28.6067 70.6267 29.5267 70.72 30.7H68.2C68.16 30.1933 67.92 29.76 67.48 29.4C67.04 29.04 66.46 28.86 65.74 28.86C65.0867 28.86 64.5533 29.0267 64.14 29.36C63.7267 29.6933 63.52 30.1733 63.52 30.8C63.52 31.2267 63.6467 31.58 63.9 31.86C64.1667 32.1267 64.5 32.34 64.9 32.5C65.3 32.66 65.8467 32.8333 66.54 33.02C67.46 33.2733 68.2067 33.5267 68.78 33.78C69.3667 34.0333 69.86 34.4267 70.26 34.96C70.6733 35.48 70.88 36.18 70.88 37.06C70.88 37.7667 70.6867 38.4333 70.3 39.06C69.9267 39.6867 69.3733 40.1933 68.64 40.58C67.92 40.9533 67.0667 41.14 66.08 41.14ZM75.8503 31.6C76.237 31.0933 76.7636 30.6667 77.4303 30.32C78.097 29.9733 78.8503 29.8 79.6903 29.8C80.6503 29.8 81.5236 30.04 82.3103 30.52C83.1103 30.9867 83.737 31.6467 84.1903 32.5C84.6436 33.3533 84.8703 34.3333 84.8703 35.44C84.8703 36.5467 84.6436 37.54 84.1903 38.42C83.737 39.2867 83.1103 39.9667 82.3103 40.46C81.5236 40.94 80.6503 41.18 79.6903 41.18C78.8503 41.18 78.1036 41.0133 77.4503 40.68C76.797 40.3333 76.2636 39.9067 75.8503 39.4V46.24H73.5703V29.98H75.8503V31.6ZM82.5503 35.44C82.5503 34.68 82.3903 34.0267 82.0703 33.48C81.7636 32.92 81.3503 32.5 80.8303 32.22C80.3236 31.9267 79.777 31.78 79.1903 31.78C78.617 31.78 78.0703 31.9267 77.5503 32.22C77.0436 32.5133 76.6303 32.94 76.3103 33.5C76.0036 34.06 75.8503 34.72 75.8503 35.48C75.8503 36.24 76.0036 36.9067 76.3103 37.48C76.6303 38.04 77.0436 38.4667 77.5503 38.76C78.0703 39.0533 78.617 39.2 79.1903 39.2C79.777 39.2 80.3236 39.0533 80.8303 38.76C81.3503 38.4533 81.7636 38.0133 82.0703 37.44C82.3903 36.8667 82.5503 36.2 82.5503 35.44ZM91.905 41.18C90.865 41.18 89.925 40.9467 89.085 40.48C88.245 40 87.585 39.3333 87.105 38.48C86.625 37.6133 86.385 36.6133 86.385 35.48C86.385 34.36 86.6317 33.3667 87.125 32.5C87.6183 31.6333 88.2917 30.9667 89.145 30.5C89.9983 30.0333 90.9517 29.8 92.005 29.8C93.0583 29.8 94.0117 30.0333 94.865 30.5C95.7183 30.9667 96.3917 31.6333 96.885 32.5C97.3783 33.3667 97.625 34.36 97.625 35.48C97.625 36.6 97.3717 37.5933 96.865 38.46C96.3583 39.3267 95.665 40 94.785 40.48C93.9183 40.9467 92.9583 41.18 91.905 41.18ZM91.905 39.2C92.4917 39.2 93.0383 39.06 93.545 38.78C94.065 38.5 94.485 38.08 94.805 37.52C95.125 36.96 95.285 36.28 95.285 35.48C95.285 34.68 95.1317 34.0067 94.825 33.46C94.5183 32.9 94.1117 32.48 93.605 32.2C93.0983 31.92 92.5517 31.78 91.965 31.78C91.3783 31.78 90.8317 31.92 90.325 32.2C89.8317 32.48 89.4383 32.9 89.145 33.46C88.8517 34.0067 88.705 34.68 88.705 35.48C88.705 36.6667 89.005 37.5867 89.605 38.24C90.2183 38.88 90.985 39.2 91.905 39.2ZM102.539 31.84V37.94C102.539 38.3533 102.632 38.6533 102.819 38.84C103.019 39.0133 103.352 39.1 103.819 39.1H105.219V41H103.419C102.392 41 101.606 40.76 101.059 40.28C100.512 39.8 100.239 39.02 100.239 37.94V31.84H98.9389V29.98H100.239V27.24H102.539V29.98H105.219V31.84H102.539ZM108.48 28.52C108.067 28.52 107.72 28.38 107.44 28.1C107.16 27.82 107.02 27.4733 107.02 27.06C107.02 26.6467 107.16 26.3 107.44 26.02C107.72 25.74 108.067 25.6 108.48 25.6C108.88 25.6 109.22 25.74 109.5 26.02C109.78 26.3 109.92 26.6467 109.92 27.06C109.92 27.4733 109.78 27.82 109.5 28.1C109.22 28.38 108.88 28.52 108.48 28.52ZM109.6 29.98V41H107.32V29.98H109.6ZM117.214 31.84H115.174V41H112.874V31.84H111.574V29.98H112.874V29.2C112.874 27.9333 113.207 27.0133 113.874 26.44C114.554 25.8533 115.614 25.56 117.054 25.56V27.46C116.36 27.46 115.874 27.5933 115.594 27.86C115.314 28.1133 115.174 28.56 115.174 29.2V29.98H117.214V31.84ZM129.154 29.98L122.394 46.18H120.034L122.274 40.82L117.934 29.98H120.474L123.574 38.38L126.794 29.98H129.154Z" fill="#192434"/>
</svg>
