<svg width="138" height="50" viewBox="0 0 138 50" fill="none" xmlns="http://www.w3.org/2000/svg">
<path d="M14 16.0667H6.66669V38.0667H14V16.0667Z" fill="#3392C5"/>
<path d="M21.3333 13.1333H14V35.1333H21.3333V13.1333Z" fill="#622268"/>
<path d="M28.6667 16.0667H21.3334V38.0667H28.6667V16.0667Z" fill="#FBC818"/>
<path d="M36 11.6667H28.6667V33.6667H36V11.6667Z" fill="#EC8A22"/>
<path d="M43.3333 14.6001H36V36.6001H43.3333V14.6001Z" fill="#C53726"/>
<path d="M62.352 14.964H65.768V16H61.078V6.242H62.352V14.964ZM67.779 7.082C67.5363 7.082 67.331 6.998 67.163 6.83C66.995 6.662 66.911 6.45667 66.911 6.214C66.911 5.97133 66.995 5.766 67.163 5.598C67.331 5.43 67.5363 5.346 67.779 5.346C68.0123 5.346 68.2083 5.43 68.367 5.598C68.535 5.766 68.619 5.97133 68.619 6.214C68.619 6.45667 68.535 6.662 68.367 6.83C68.2083 6.998 68.0123 7.082 67.779 7.082ZM68.395 8.328V16H67.121V8.328H68.395ZM73.2823 16.126C72.6943 16.126 72.1669 16.028 71.7003 15.832C71.2336 15.6267 70.8649 15.3467 70.5943 14.992C70.3236 14.628 70.1743 14.2127 70.1463 13.746H71.4623C71.4996 14.1287 71.6769 14.4413 71.9943 14.684C72.3209 14.9267 72.7456 15.048 73.2683 15.048C73.7536 15.048 74.1363 14.9407 74.4163 14.726C74.6963 14.5113 74.8363 14.2407 74.8363 13.914C74.8363 13.578 74.6869 13.3307 74.3883 13.172C74.0896 13.004 73.6276 12.8407 73.0023 12.682C72.4329 12.5327 71.9663 12.3833 71.6023 12.234C71.2476 12.0753 70.9396 11.8467 70.6783 11.548C70.4263 11.24 70.3003 10.8387 70.3003 10.344C70.3003 9.952 70.4169 9.59267 70.6503 9.266C70.8836 8.93933 71.2149 8.68267 71.6443 8.496C72.0736 8.3 72.5636 8.202 73.1143 8.202C73.9636 8.202 74.6496 8.41667 75.1723 8.846C75.6949 9.27533 75.9749 9.86333 76.0123 10.61H74.7383C74.7103 10.2087 74.5469 9.88667 74.2483 9.644C73.9589 9.40133 73.5669 9.28 73.0723 9.28C72.6149 9.28 72.2509 9.378 71.9803 9.574C71.7096 9.77 71.5743 10.0267 71.5743 10.344C71.5743 10.596 71.6536 10.806 71.8123 10.974C71.9803 11.1327 72.1856 11.2633 72.4283 11.366C72.6803 11.4593 73.0256 11.5667 73.4643 11.688C74.0149 11.8373 74.4629 11.9867 74.8083 12.136C75.1536 12.276 75.4476 12.4907 75.6903 12.78C75.9423 13.0693 76.0729 13.4473 76.0823 13.914C76.0823 14.334 75.9656 14.712 75.7323 15.048C75.4989 15.384 75.1676 15.65 74.7383 15.846C74.3183 16.0327 73.8329 16.126 73.2823 16.126ZM79.4347 9.378V13.9C79.4347 14.2733 79.5141 14.5393 79.6727 14.698C79.8314 14.8473 80.1067 14.922 80.4987 14.922H81.4367V16H80.2887C79.5794 16 79.0474 15.8367 78.6927 15.51C78.3381 15.1833 78.1607 14.6467 78.1607 13.9V9.378H77.1667V8.328H78.1607V6.396H79.4347V8.328H81.4367V9.378H79.4347ZM89.9803 11.87C89.9803 12.1127 89.9663 12.3693 89.9383 12.64H83.8063C83.853 13.396 84.1097 13.9887 84.5763 14.418C85.0523 14.838 85.6263 15.048 86.2983 15.048C86.849 15.048 87.3063 14.922 87.6703 14.67C88.0437 14.4087 88.305 14.0633 88.4543 13.634H89.8263C89.621 14.3713 89.2103 14.9733 88.5943 15.44C87.9783 15.8973 87.213 16.126 86.2983 16.126C85.5703 16.126 84.917 15.9627 84.3383 15.636C83.769 15.3093 83.321 14.8473 82.9943 14.25C82.6677 13.6433 82.5043 12.9433 82.5043 12.15C82.5043 11.3567 82.663 10.6613 82.9803 10.064C83.2977 9.46667 83.741 9.00933 84.3103 8.692C84.889 8.36533 85.5517 8.202 86.2983 8.202C87.0263 8.202 87.6703 8.36067 88.2303 8.678C88.7903 8.99533 89.2197 9.434 89.5183 9.994C89.8263 10.5447 89.9803 11.17 89.9803 11.87ZM88.6643 11.604C88.6643 11.1187 88.557 10.7033 88.3423 10.358C88.1277 10.0033 87.8337 9.73733 87.4603 9.56C87.0963 9.37333 86.6903 9.28 86.2423 9.28C85.5983 9.28 85.0477 9.48533 84.5903 9.896C84.1423 10.3067 83.8857 10.876 83.8203 11.604H88.6643ZM95.4 8.188C96.3333 8.188 97.0893 8.47267 97.668 9.042C98.2467 9.602 98.536 10.414 98.536 11.478V16H97.276V11.66C97.276 10.8947 97.0847 10.3113 96.702 9.91C96.3193 9.49933 95.7967 9.294 95.134 9.294C94.462 9.294 93.9253 9.504 93.524 9.924C93.132 10.344 92.936 10.9553 92.936 11.758V16H91.662V8.328H92.936V9.42C93.188 9.028 93.5287 8.72467 93.958 8.51C94.3967 8.29533 94.8773 8.188 95.4 8.188ZM107.695 16.126C106.977 16.126 106.323 15.9627 105.735 15.636C105.157 15.3093 104.699 14.8473 104.363 14.25C104.037 13.6433 103.873 12.9433 103.873 12.15C103.873 11.366 104.041 10.6753 104.377 10.078C104.723 9.47133 105.189 9.00933 105.777 8.692C106.365 8.36533 107.023 8.202 107.751 8.202C108.479 8.202 109.137 8.36533 109.725 8.692C110.313 9.00933 110.775 9.46667 111.111 10.064C111.457 10.6613 111.629 11.3567 111.629 12.15C111.629 12.9433 111.452 13.6433 111.097 14.25C110.752 14.8473 110.281 15.3093 109.683 15.636C109.086 15.9627 108.423 16.126 107.695 16.126ZM107.695 15.006C108.153 15.006 108.582 14.8987 108.983 14.684C109.385 14.4693 109.707 14.1473 109.949 13.718C110.201 13.2887 110.327 12.766 110.327 12.15C110.327 11.534 110.206 11.0113 109.963 10.582C109.721 10.1527 109.403 9.83533 109.011 9.63C108.619 9.41533 108.195 9.308 107.737 9.308C107.271 9.308 106.841 9.41533 106.449 9.63C106.067 9.83533 105.759 10.1527 105.525 10.582C105.292 11.0113 105.175 11.534 105.175 12.15C105.175 12.7753 105.287 13.3027 105.511 13.732C105.745 14.1613 106.053 14.4833 106.435 14.698C106.818 14.9033 107.238 15.006 107.695 15.006ZM117.043 8.188C117.976 8.188 118.732 8.47267 119.311 9.042C119.889 9.602 120.179 10.414 120.179 11.478V16H118.919V11.66C118.919 10.8947 118.727 10.3113 118.345 9.91C117.962 9.49933 117.439 9.294 116.777 9.294C116.105 9.294 115.568 9.504 115.167 9.924C114.775 10.344 114.579 10.9553 114.579 11.758V16H113.305V8.328H114.579V9.42C114.831 9.028 115.171 8.72467 115.601 8.51C116.039 8.29533 116.52 8.188 117.043 8.188Z" fill="#1B2B41" fill-opacity="0.72"/>
<path d="M66.08 41.14C65.1467 41.14 64.3067 40.98 63.56 40.66C62.8133 40.3267 62.2267 39.86 61.8 39.26C61.3733 38.66 61.16 37.96 61.16 37.16H63.6C63.6533 37.76 63.8867 38.2533 64.3 38.64C64.7267 39.0267 65.32 39.22 66.08 39.22C66.8667 39.22 67.48 39.0333 67.92 38.66C68.36 38.2733 68.58 37.78 68.58 37.18C68.58 36.7133 68.44 36.3333 68.16 36.04C67.8933 35.7467 67.5533 35.52 67.14 35.36C66.74 35.2 66.18 35.0267 65.46 34.84C64.5533 34.6 63.8133 34.36 63.24 34.12C62.68 33.8667 62.2 33.48 61.8 32.96C61.4 32.44 61.2 31.7467 61.2 30.88C61.2 30.08 61.4 29.38 61.8 28.78C62.2 28.18 62.76 27.72 63.48 27.4C64.2 27.08 65.0333 26.92 65.98 26.92C67.3267 26.92 68.4267 27.26 69.28 27.94C70.1467 28.6067 70.6267 29.5267 70.72 30.7H68.2C68.16 30.1933 67.92 29.76 67.48 29.4C67.04 29.04 66.46 28.86 65.74 28.86C65.0867 28.86 64.5533 29.0267 64.14 29.36C63.7267 29.6933 63.52 30.1733 63.52 30.8C63.52 31.2267 63.6467 31.58 63.9 31.86C64.1667 32.1267 64.5 32.34 64.9 32.5C65.3 32.66 65.8467 32.8333 66.54 33.02C67.46 33.2733 68.2067 33.5267 68.78 33.78C69.3667 34.0333 69.86 34.4267 70.26 34.96C70.6733 35.48 70.88 36.18 70.88 37.06C70.88 37.7667 70.6867 38.4333 70.3 39.06C69.9267 39.6867 69.3733 40.1933 68.64 40.58C67.92 40.9533 67.0667 41.14 66.08 41.14ZM76.2303 31.84V37.94C76.2303 38.3533 76.3236 38.6533 76.5103 38.84C76.7103 39.0133 77.0436 39.1 77.5103 39.1H78.9103V41H77.1103C76.0836 41 75.297 40.76 74.7503 40.28C74.2036 39.8 73.9303 39.02 73.9303 37.94V31.84H72.6303V29.98H73.9303V27.24H76.2303V29.98H78.9103V31.84H76.2303ZM82.1717 28.52C81.7584 28.52 81.4117 28.38 81.1317 28.1C80.8517 27.82 80.7117 27.4733 80.7117 27.06C80.7117 26.6467 80.8517 26.3 81.1317 26.02C81.4117 25.74 81.7584 25.6 82.1717 25.6C82.5717 25.6 82.9117 25.74 83.1917 26.02C83.4717 26.3 83.6117 26.6467 83.6117 27.06C83.6117 27.4733 83.4717 27.82 83.1917 28.1C82.9117 28.38 82.5717 28.52 82.1717 28.52ZM83.2917 29.98V41H81.0117V29.98H83.2917ZM88.9452 31.84V37.94C88.9452 38.3533 89.0385 38.6533 89.2252 38.84C89.4252 39.0133 89.7585 39.1 90.2252 39.1H91.6252V41H89.8252C88.7985 41 88.0118 40.76 87.4652 40.28C86.9185 39.8 86.6452 39.02 86.6452 37.94V31.84H85.3452V29.98H86.6452V27.24H88.9452V29.98H91.6252V31.84H88.9452ZM92.9666 35.48C92.9666 34.3467 93.1932 33.3533 93.6466 32.5C94.1132 31.6333 94.7532 30.9667 95.5666 30.5C96.3799 30.0333 97.3132 29.8 98.3666 29.8C99.6999 29.8 100.8 30.12 101.667 30.76C102.547 31.3867 103.14 32.2867 103.447 33.46H100.987C100.787 32.9133 100.467 32.4867 100.027 32.18C99.5866 31.8733 99.0332 31.72 98.3666 31.72C97.4332 31.72 96.6866 32.0533 96.1266 32.72C95.5799 33.3733 95.3066 34.2933 95.3066 35.48C95.3066 36.6667 95.5799 37.5933 96.1266 38.26C96.6866 38.9267 97.4332 39.26 98.3666 39.26C99.6866 39.26 100.56 38.68 100.987 37.52H103.447C103.127 38.64 102.527 39.5333 101.647 40.2C100.767 40.8533 99.6732 41.18 98.3666 41.18C97.3132 41.18 96.3799 40.9467 95.5666 40.48C94.7532 40 94.1132 39.3333 93.6466 38.48C93.1932 37.6133 92.9666 36.6133 92.9666 35.48ZM111.419 29.8C112.259 29.8 113.005 29.98 113.659 30.34C114.325 30.7 114.845 31.2333 115.219 31.94C115.605 32.6467 115.799 33.5 115.799 34.5V41H113.539V34.84C113.539 33.8533 113.292 33.1 112.799 32.58C112.305 32.0467 111.632 31.78 110.779 31.78C109.925 31.78 109.245 32.0467 108.739 32.58C108.245 33.1 107.999 33.8533 107.999 34.84V41H105.719V26.2H107.999V31.26C108.385 30.7933 108.872 30.4333 109.459 30.18C110.059 29.9267 110.712 29.8 111.419 29.8ZM128.807 35.22C128.807 35.6333 128.78 36.0067 128.727 36.34H120.307C120.374 37.22 120.7 37.9267 121.287 38.46C121.874 38.9933 122.594 39.26 123.447 39.26C124.674 39.26 125.54 38.7467 126.047 37.72H128.507C128.174 38.7333 127.567 39.5667 126.687 40.22C125.82 40.86 124.74 41.18 123.447 41.18C122.394 41.18 121.447 40.9467 120.607 40.48C119.78 40 119.127 39.3333 118.647 38.48C118.18 37.6133 117.947 36.6133 117.947 35.48C117.947 34.3467 118.174 33.3533 118.627 32.5C119.094 31.6333 119.74 30.9667 120.567 30.5C121.407 30.0333 122.367 29.8 123.447 29.8C124.487 29.8 125.414 30.0267 126.227 30.48C127.04 30.9333 127.674 31.5733 128.127 32.4C128.58 33.2133 128.807 34.1533 128.807 35.22ZM126.427 34.5C126.414 33.66 126.114 32.9867 125.527 32.48C124.94 31.9733 124.214 31.72 123.347 31.72C122.56 31.72 121.887 31.9733 121.327 32.48C120.767 32.9733 120.434 33.6467 120.327 34.5H126.427ZM133.331 31.58C133.664 31.02 134.104 30.5867 134.651 30.28C135.211 29.96 135.871 29.8 136.631 29.8V32.16H136.051C135.157 32.16 134.477 32.3867 134.011 32.84C133.557 33.2933 133.331 34.08 133.331 35.2V41H131.051V29.98H133.331V31.58Z" fill="#192434"/>
</svg>
